<svg xmlns="http://www.w3.org/2000/svg" viewBox="0 0 512 512">
	<defs>
		<style>
			.cls-1{fill:#c7bec6;}.cls-2{fill:#baafb9;}.cls-3{fill:#f7f2f0;}.cls-4{fill:#f1e9e6;}.cls-5{fill:#ee6161;}.cls-6{fill:#e3817f;}
		</style>
	</defs>
	<title>
		pressure-gauge-max
	</title>
	<g id="Capa_1" data-name="Capa 1">
		<circle class="cls-1" cx="256" cy="256" r="256" />
		<path class="cls-2" d="M87.65,256c0-126.44,91.68-231.47,212.18-252.26A257.37,257.37,0,0,0,256,0C114.62,0,0,114.62,0,256S114.62,512,256,512a258.83,258.83,0,0,0,43.86-3.74C179.35,487.47,87.65,382.44,87.65,256Z" transform="translate(0 0)" />
		<path class="cls-3" d="M256,478.89A222.89,222.89,0,0,1,98.39,98.39,222.89,222.89,0,1,1,413.6,413.6,221.39,221.39,0,0,1,256,478.89Z" transform="translate(0 0)" />
		<path class="cls-4" d="M209.49,37.94A222.95,222.95,0,0,0,98.39,413.6,221.39,221.39,0,0,0,209.5,474.06a256,256,0,0,1,0-436.12Z" transform="translate(0 0)" />
		<path class="cls-5" d="M60.41,263.82H47.7a7.83,7.83,0,1,1,0-15.65H60.41a7.83,7.83,0,1,1,0,15.65Z" transform="translate(0 0)" />
		<path class="cls-5" d="M80.25,166.12l-11.36-5.71a7.82,7.82,0,0,1,7-14l11.36,5.71a7.82,7.82,0,1,1-7,14Z" transform="translate(0 0)" />
		<path class="cls-5" d="M147,91.15l-7.1-10.54a7.82,7.82,0,1,1,13-8.75L160,82.4a7.83,7.83,0,1,1-13,8.75Z" transform="translate(0 0)" />
		<path class="cls-5" d="M247.19,59.14l0-12.72a7.83,7.83,0,0,1,15.65,0l0,12.71a7.83,7.83,0,0,1-15.65,0Z" transform="translate(0 0)" />
	</g>
	<g id="Layer_5" data-name="Layer 5">
		<path class="cls-1" d="M255,71c-101.71.54-184,83.15-184,185a184.16,184.16,0,0,0,37.19,111.25h0a12,12,0,0,0,19.24-14.33l-.08.05a160,160,0,1,1,255.28,0l-.08-.05a12,12,0,0,0,19.24,14.33h0A184.16,184.16,0,0,0,439,256C439,154.16,356.71,71.55,255,71Z" transform="translate(0 0)" />
	</g>
	<g id="Layer_3" data-name="Layer 3">
		<path class="cls-6" d="M181.28,285.35l142.47,19.21a6.62,6.62,0,0,0,6.38-10.25l-80-119a6.62,6.62,0,0,0-12,2.4l-11.32,56.91a6.66,6.66,0,0,1-2.5,4l-46.17,34.88a6.62,6.62,0,0,0,3.1,11.84Z" transform="translate(0 0)" />
		<path class="cls-5" d="M91,360.4l-10.63,7a7.82,7.82,0,0,1-8.59-13.08l10.63-7A7.82,7.82,0,0,1,91,360.4Z" transform="translate(0 0)" />
		<path class="cls-5" d="M441.76,256a7.83,7.83,0,0,1,7.83-7.83H462.3a7.83,7.83,0,1,1,0,15.65H449.59A7.82,7.82,0,0,1,441.76,256Z" transform="translate(0 0)" />
		<path class="cls-5" d="M419.24,162.65a7.83,7.83,0,0,1,3.48-10.51l11.36-5.71a7.82,7.82,0,0,1,7,14l-11.36,5.71A7.83,7.83,0,0,1,419.24,162.65Z" transform="translate(0 0)" />
		<path class="cls-5" d="M352.14,93.27A7.83,7.83,0,0,1,350,82.4l7.11-10.54a7.82,7.82,0,0,1,13,8.75L363,91.15A7.83,7.83,0,0,1,352.14,93.27Z" transform="translate(0 0)" />
		<path class="cls-5" d="M416.77,349.57a7.81,7.81,0,0,1,10.83-2.25l10.63,7a7.82,7.82,0,0,1-8.59,13.08l-10.63-7A7.81,7.81,0,0,1,416.77,349.57Z" transform="translate(0 0)" />
	</g>
</svg>
