<svg enable-background="new 0 0 497.58 497.58" viewBox="0 0 497.58 497.58" xmlns="http://www.w3.org/2000/svg">
	<g>
		<g>
			<g id="XMLID_156_">
				<g>
					<path d="m392.174 361.34c20.51 23.08 31.84 52.88 31.84 83.75v46.634c0 3.234-2.622 5.856-5.856 5.856h-326.258c-3.234 0-5.856-2.622-5.856-5.856v-46.634c0-30.87 11.33-60.67 31.84-83.75l37.17-41.82 45.46-45.22h114.85l38.81 45.22z" fill="#fae88b" />
				</g>
			</g>
		</g>
		<path d="m145.829 491.724v-46.634c0-30.87 11.33-60.67 31.84-83.75l37.17-41.82 45.46-45.22h-59.786l-45.46 45.22-37.17 41.82c-20.51 23.08-31.84 52.88-31.84 83.75v46.634c0 3.234 2.622 5.856 5.856 5.856h59.786c-3.234 0-5.856-2.622-5.856-5.856z" fill="#f9dd58" />
		<path d="m378.794 199.8-.45.11-26.729-46.84-78.563-21.158-81.504 15.639-61.115 52.32c-1.29 8.72-1.96 17.69-1.96 26.85 0 83.97 56.47 152.05 126.14 152.05s126.15-68.08 126.15-152.05c.001-9.191-.679-18.181-1.969-26.921z" fill="#f7d348" />
		<path d="m262.529 497.577v-118.685c0-4.142-3.357-7.5-7.5-7.5s-7.5 3.358-7.5 7.5v118.685.003h14.999c0-.001.001-.002.001-.003z" fill="#f9dd58" />
		<g id="XMLID_154_">
			<g>
				<g>
					<path d="m297.919 347.33 16.896 13.041c-8.22 5.15-17.036 10.099-26.456 13.039l-.68.22c-11 3.43-22.4 5.14-33.79 5.14-11.54 0-23.08-1.76-34.21-5.27-9.35-2.95-17.755-8.409-25.915-13.559l16.635-12.611v-28.4-49.28h87.52v49.28z" fill="#fed2a4" />
				</g>
			</g>
		</g>
		<g id="XMLID_155_">
			<g>
				<path d="m332.874 145.29v107.81c0 43.22-35.04 78.26-78.26 78.26-21.61 0-41.18-8.76-55.34-22.92s-22.92-33.73-22.92-55.34v-107.81z" fill="#ffe5c2" />
			</g>
		</g>
		<path d="m378.794 199.8-.45.11c-84.1-48.02-165.97-48.02-247.63 0l-.28-.04c10.52-71.17 62.11-125.21 124.18-125.21 62.05 0 113.64 54 124.18 125.14z" fill="#fae88b" />
		<g>
			<path d="m222.077 234.216c-4.143 0-7.5-3.358-7.5-7.5v-5.398c0-4.142 3.357-7.5 7.5-7.5s7.5 3.358 7.5 7.5v5.398c0 4.142-3.358 7.5-7.5 7.5z" fill="#918291" />
		</g>
		<g>
			<path d="m232.969 206.585c-.873 0-1.76-.153-2.626-.477l-21.113-7.895c-3.88-1.451-5.849-5.772-4.398-9.652 1.452-3.88 5.772-5.848 9.652-4.398l21.113 7.895c3.88 1.451 5.849 5.772 4.398 9.652-1.127 3.014-3.987 4.875-7.026 4.875z" fill="#918291" />
		</g>
		<g>
			<path d="m287.151 234.216c-4.143 0-7.5-3.358-7.5-7.5v-5.398c0-4.142 3.357-7.5 7.5-7.5s7.5 3.358 7.5 7.5v5.398c0 4.142-3.358 7.5-7.5 7.5z" fill="#918291" />
		</g>
		<g>
			<path d="m276.258 206.585c-3.039 0-5.898-1.861-7.026-4.875-1.45-3.88.519-8.201 4.398-9.652l21.113-7.895c3.878-1.45 8.201.518 9.652 4.398 1.45 3.88-.519 8.201-4.398 9.652l-21.113 7.895c-.865.324-1.753.477-2.626.477z" fill="#918291" />
		</g>
		<g>
			<path d="m254.114 264.118c-5.872 0-11.531-2.468-15.526-6.772l-1.407-1.515c-2.819-3.035-2.644-7.78.391-10.599 3.037-2.819 7.781-2.643 10.6.391l1.408 1.516c1.186 1.276 2.795 1.979 4.535 1.979s3.35-.702 4.534-1.977l1.408-1.517c2.818-3.035 7.563-3.211 10.6-.393 3.035 2.818 3.211 7.564.393 10.599l-1.408 1.517c-3.997 4.303-9.656 6.771-15.528 6.771z" fill="#fed2a4" />
		</g>
		<g>
			<path d="m235.249 305.521c-2.466 0-4.881-1.215-6.314-3.443-2.241-3.483-1.234-8.124 2.249-10.365 15.11-9.722 30.82-9.698 45.438.072 3.443 2.302 4.369 6.959 2.067 10.403s-6.96 4.37-10.403 2.068c-9.663-6.458-18.874-6.436-28.985.072-1.256.807-2.662 1.193-4.052 1.193z" fill="#eeb3b2" />
		</g>
		<g fill="#85d6e4">
			<path d="m460.352 38.985c0 12.402-10.054 22.456-22.456 22.456s-22.456-10.054-22.456-22.456c0-7.795 8.87-24.034 15.461-35.025 3.166-5.28 10.825-5.28 13.992 0 6.589 10.991 15.459 27.23 15.459 35.025z" />
			<path d="m148.678 58.677c0 9.923-8.044 17.967-17.967 17.967s-17.967-8.044-17.967-17.967c0-6.236 7.097-19.23 12.37-28.023 2.533-4.224 8.661-4.224 11.195 0 5.273 8.793 12.369 21.786 12.369 28.023z" />
			<path d="m236.183 79.209c0 7.605-6.165 13.77-13.77 13.77s-13.77-6.165-13.77-13.77c0-4.779 5.439-14.737 9.48-21.476 1.941-3.237 6.638-3.237 8.579 0 4.042 6.739 9.481 16.697 9.481 21.476z" />
			<path d="m65.231 230.564c0 9.826-7.965 17.791-17.791 17.791s-17.791-7.965-17.791-17.791c0-6.175 7.027-19.041 12.249-27.748 2.508-4.183 8.576-4.183 11.085 0 5.221 8.707 12.248 21.573 12.248 27.748z" />
			<path d="m164.042 443.612c0 9.826-7.965 17.791-17.791 17.791s-17.791-7.965-17.791-17.791c0-6.175 7.027-19.041 12.249-27.748 2.508-4.183 8.576-4.183 11.085 0 5.22 8.707 12.248 21.573 12.248 27.748z" />
			<path d="m419.639 382.415c0 8.55-6.931 15.482-15.482 15.482-8.55 0-15.482-6.931-15.482-15.482 0-5.374 6.115-16.569 10.659-24.146 2.183-3.64 7.463-3.64 9.646 0 4.544 7.577 10.659 18.773 10.659 24.146z" />
			<path d="m467.932 269.367c0 10.558-8.559 19.118-19.118 19.118-10.558 0-19.118-8.559-19.118-19.118 0-6.636 7.551-20.461 13.162-29.817 2.695-4.495 9.216-4.495 11.911 0 5.612 9.356 13.163 23.181 13.163 29.817z" />
			<path d="m359.655 119.932c0 8.932-7.241 16.174-16.174 16.174-8.932 0-16.173-7.241-16.173-16.174 0-5.614 6.388-17.31 11.135-25.226 2.28-3.803 7.797-3.803 10.077 0 4.747 7.916 11.135 19.612 11.135 25.226z" />
		</g>
	</g>
	<path d="m352.501 483.707c0 7.605-6.165 13.77-13.77 13.77s-13.77-6.165-13.77-13.77c0-4.779 5.439-14.737 9.48-21.476 1.941-3.237 6.638-3.237 8.579 0 4.042 6.739 9.481 16.696 9.481 21.476z" fill="#85d6e4" />
</svg>
