<svg enable-background="new 0 0 490.714 490.714" viewBox="0 0 490.714 490.714"  xmlns="http://www.w3.org/2000/svg">
	<g>
		<path d="m217.474 490.59c-58.089 0-112.702-22.621-153.777-63.697-41.076-41.076-63.697-95.688-63.697-153.778 0-58.089 22.621-112.701 63.696-153.777 41.076-41.075 95.688-63.696 153.777-63.696s112.702 22.621 153.777 63.696c41.075 41.076 63.696 95.688 63.696 153.777 0 58.09-22.621 112.702-63.696 153.777-41.075 41.077-95.687 63.698-153.776 63.698z" fill="#fdb441" />
		<circle cx="217.474" cy="273.116" fill="#fedf30" r="177.474" />
		<path d="m100.779 273.116c0-87.654 63.576-160.466 147.112-174.882-9.876-1.704-20.055-2.592-30.418-2.592-98.015 0-177.473 79.458-177.473 177.474s79.458 177.474 177.474 177.474c10.362 0 20.548-.893 30.424-2.598-83.536-14.416-147.119-87.223-147.119-174.876z" fill="#fed402" />
		<g>
			<path d="m429.881 195.794v-151.616c0-24.331-19.724-44.055-44.055-44.055-24.331 0-44.055 19.724-44.055 44.055v151.987c-36.566 17.216-61.534 55.004-59.967 98.447 2.007 55.65 47.981 100.229 103.665 100.622 58.054.41 105.244-46.528 105.244-104.487.001-42.122-24.927-78.417-60.832-94.953z" fill="#eaf9fa" />
			<path d="m385.824 30.126c-7.75 0-14.05 6.3-14.05 14.05v21.82l10.908 16.466h10.25l6.951-16.466v-21.82c.001-7.75-6.309-14.05-14.059-14.05z" fill="#a6e7f0" />
			<g id="XMLID_409_">
				<g>
					<path d="m460.714 290.746c0 19.9-7.75 38.6-21.82 52.67s-32.77 21.82-52.67 21.82h-.54c-19.18-.14-37.39-7.64-51.28-21.12-13.9-13.48-21.93-31.45-22.62-50.59-1.08-29.92 15.71-57.48 42.77-70.22l17.22-8.11v-149.2h28.11v149.01l17.45 8.04c26.35 12.13 43.38 38.71 43.38 67.7z" fill="#f37c7c" />
				</g>
			</g>
			<g>
				<path d="m468.232 62.142h-12.187c-4.142 0-7.5-3.357-7.5-7.5s3.358-7.5 7.5-7.5h12.187c4.142 0 7.5 3.357 7.5 7.5s-3.358 7.5-7.5 7.5z" fill="#ee6161" />
			</g>
			<g>
				<path d="m468.232 115.401h-12.187c-4.142 0-7.5-3.357-7.5-7.5s3.358-7.5 7.5-7.5h12.187c4.142 0 7.5 3.357 7.5 7.5s-3.358 7.5-7.5 7.5z" fill="#f37c7c" />
			</g>
			<g>
				<path d="m468.232 168.66h-12.187c-4.142 0-7.5-3.357-7.5-7.5s3.358-7.5 7.5-7.5h12.187c4.142 0 7.5 3.357 7.5 7.5s-3.358 7.5-7.5 7.5z" fill="#f79595" />
			</g>
		</g>
	</g>
</svg>
