<svg enable-background="new 0 0 497.767 497.767" viewBox="0 0 497.767 497.767" xmlns="http://www.w3.org/2000/svg">
	<g>
		<g id="XMLID_424_">
			<g>
				<path d="m368.247 406.06c-10.811 18.006-25.134 33.715-42.339 45.76-26.349 18.447-57.149 31.395-91.021 36.906-98.29 15.99-191.95-35.56-233.66-120.54-4.48-9.12 4.04-19.16 13.73-16.14 16.18 5.06 33.36 7.87 51.16 8.06 98.03 1.07 179.05-78.22 180-176.25.42-43.52-14.78-83.48-40.33-114.62-6.41-7.81-.21-19.44 9.87-18.71 37.35 2.72 72.69 14.91 103.17 34.51 65.88 38.51 101.33 102.73 101.33 184.56 0 43.54-32.564 104.243-51.91 136.464z" fill="#fee97d" />
			</g>
		</g>
		<g>
			<path d="m302.468 458.119c-89.471 14.555-175.099-26.858-221.205-98.502-4.998.37-10.047.544-15.145.489-17.8-.19-34.98-3-51.16-8.06-9.69-3.02-18.21 7.02-13.73 16.14 41.71 84.98 135.37 136.53 233.66 120.54 32.673-5.315 62.51-17.567 88.228-34.983-6.735 1.76-13.639 3.236-20.648 4.376z" fill="#fee45a" />
		</g>
		<path d="m168.395 236.025c-7.393-4.795-13.47-10.783-18.144-18.042-2.178-3.383-7.122-3.441-9.456-.163-4.736 6.653-10.807 12.522-18.062 17.696-3.34 2.382-3.199 7.457.278 9.635 7.235 4.532 13.298 10.398 18.023 17.787 2.178 3.405 7.171 3.417 9.409.052 4.574-6.878 10.715-12.556 18.003-17.357 3.48-2.294 3.445-7.341-.051-9.608z" fill="#fee97d" />
		<path d="m58.089 128.978c-7.393-4.795-13.47-10.783-18.144-18.042-2.178-3.383-7.122-3.441-9.456-.163-4.736 6.653-10.807 12.522-18.062 17.696-3.34 2.382-3.199 7.457.278 9.635 7.235 4.532 13.298 10.398 18.023 17.787 2.178 3.405 7.171 3.417 9.409.052 4.574-6.878 10.715-12.556 18.003-17.357 3.479-2.294 3.445-7.34-.051-9.608z" fill="#fee97d" />
		<g>
			<g>
				<path d="m139.096 150.382c-4.142 0-7.5-3.357-7.5-7.5v-25.227c0-4.143 3.358-7.5 7.5-7.5s7.5 3.357 7.5 7.5v25.227c0 4.143-3.358 7.5-7.5 7.5z" fill="#fff8bf" />
			</g>
		</g>
		<g>
			<g>
				<path d="m151.71 137.769h-25.226c-4.142 0-7.5-3.357-7.5-7.5s3.358-7.5 7.5-7.5h25.226c4.142 0 7.5 3.357 7.5 7.5s-3.358 7.5-7.5 7.5z" fill="#fff8bf" />
			</g>
		</g>
		<g>
			<g>
				<path d="m39.295 275.074c-4.142 0-7.5-3.357-7.5-7.5v-25.226c0-4.143 3.358-7.5 7.5-7.5s7.5 3.357 7.5 7.5v25.226c0 4.142-3.358 7.5-7.5 7.5z" fill="#fff8bf" />
			</g>
		</g>
		<g>
			<g>
				<path d="m51.908 262.461h-25.227c-4.142 0-7.5-3.357-7.5-7.5s3.358-7.5 7.5-7.5h25.227c4.142 0 7.5 3.357 7.5 7.5s-3.358 7.5-7.5 7.5z" fill="#fff8bf" />
			</g>
		</g>
		<path d="m436.934 201.813v-151.616c0-24.331-19.724-44.055-44.055-44.055-24.331 0-44.055 19.724-44.055 44.055v151.987c-36.566 17.216-61.534 55.004-59.967 98.447 2.007 55.65 47.981 100.229 103.665 100.622 58.054.41 105.244-46.528 105.244-104.487.001-42.122-24.927-78.417-60.832-94.953z" fill="#eaf9fa" />
		<g id="XMLID_425_">
			<g>
				<path d="m392.877 36.146c-7.75 0-14.05 6.3-14.05 14.05v131.47l7.586 16.559h16.759l3.765-16.559v-131.471c0-7.75-6.31-14.049-14.06-14.049z" fill="#a6e7f0" />
				<path d="m467.767 296.766c0 19.9-7.75 38.6-21.82 52.67s-32.77 21.82-52.67 21.82h-.54c-19.18-.14-37.39-7.64-51.28-21.12-13.9-13.48-21.93-31.45-22.62-50.59-1.08-29.92 15.71-57.48 42.77-70.22l17.22-8.11v-39.55h28.11v39.36l17.45 8.04c26.35 12.13 43.38 38.71 43.38 67.7z" fill="#6bd9e7" />
			</g>
		</g>
		<g>
			<path d="m475.285 68.161h-12.187c-4.143 0-7.5-3.357-7.5-7.5s3.357-7.5 7.5-7.5h12.187c4.143 0 7.5 3.357 7.5 7.5s-3.358 7.5-7.5 7.5z" fill="#2ed1e2" />
		</g>
		<g>
			<path d="m475.285 121.42h-12.187c-4.143 0-7.5-3.357-7.5-7.5s3.357-7.5 7.5-7.5h12.187c4.143 0 7.5 3.357 7.5 7.5s-3.358 7.5-7.5 7.5z" fill="#6bd9e7" />
		</g>
		<g>
			<path d="m475.285 174.679h-12.187c-4.143 0-7.5-3.357-7.5-7.5s3.357-7.5 7.5-7.5h12.187c4.143 0 7.5 3.357 7.5 7.5s-3.358 7.5-7.5 7.5z" fill="#a6e7f0" />
		</g>
	</g>
</svg>
