<svg viewBox="0 0 504.416 504.416" xmlns="http://www.w3.org/2000/svg">
	<g>
		<g id="XMLID_120_">
			<g>
				<path d="m317.072 354.788c1.75.44 2.52 2.5 1.48 3.97-8.69 12.28-44.26 57.66-101.88 67.67l-.67.37c-39.59 43.04-97.01 48.4-112.03 49.06-1.8.08-3.12-1.68-2.54-3.39l10.69-31.7c-69.74 1.72-97.75-47.7-104.15-61.39-.95-2.01-.43-4.41 1.24-5.87l56.97-49.9c-24.92-8.9-33.39-44.72-35.31-54.8-.27-1.44.71-2.81 2.16-3.02l33.15-4.62 7.35-85.68c.37-4.32 5.04-6.86 8.87-4.84l76.03 40.17 21.83-25.37c.95-1.11 2.63-1.2 3.69-.2 7.43 7.05 32.99 33.57 27 59.36l72.78-20.92c2.14-.61 4.43.25 5.62 2.13 8.04 12.79 34.45 63.08-4.73 120.81z" fill="#fec165" />
			</g>
		</g>
		<g>
			<path d="m108.908 440.812c-34.724-14.44-50.614-42.947-55.235-52.831-.95-2.01-.43-4.41 1.24-5.87l25.605-22.428c14.086-12.338 17.265-32.867 7.906-49.085-7.43-12.876-10.739-27.349-11.851-33.187-.27-1.44.71-2.81 2.16-3.02l15.48-2.157c10.337-1.441 18.303-9.84 19.195-20.238l5.331-62.148-36.337-19.199c-3.83-2.02-8.5.52-8.87 4.84l-7.35 85.68-33.15 4.62c-1.45.21-2.43 1.58-2.16 3.02 1.92 10.08 10.39 45.9 35.31 54.8l-56.97 49.9c-1.67 1.46-2.19 3.86-1.24 5.87 6.3 13.477 33.546 61.585 100.936 61.433z" fill="#fdb441" />
		</g>
		<path d="m261.178 493.001-65.514-120.36 27.891-81.184c1.346-3.917-.739-8.184-4.656-9.53-3.92-1.348-8.185.739-9.53 4.656l-23.428 68.194-27.637-50.773v-33.43c0-4.142-3.358-7.5-7.5-7.5s-7.5 3.358-7.5 7.5v25.093l-21.508-6.82c-3.951-1.251-8.165.934-9.417 4.882-1.252 3.949.934 8.165 4.882 9.417l28.398 9.005 28.186 51.782-73.707-9.867c-4.107-.553-7.879 2.333-8.429 6.438s2.333 7.879 6.438 8.429l84.583 11.323 65.272 119.917c1.36 2.5 3.936 3.916 6.594 3.916 1.211 0 2.44-.294 3.579-.914 3.639-1.981 4.984-6.535 3.003-10.174z" fill="#e19974" />
		<g id="XMLID_121_">
			<g>
				<path d="m502.842 131.588c1.28.83 1.87 2.41 1.43 3.87-3 9.92-17.12 46.24-64.63 51.96l10.39 20.47c.56 1.1-.16 2.42-1.39 2.55-10.26 1.04-49.76 3.07-80.89-22.23l-.5-.18c-40.1-1.1-68.73-28.39-75.84-35.87-.85-.89-.53-2.36.61-2.83l21.22-8.75c-32.3-35.31-19.35-72.06-15.15-81.54.61-1.39 2.09-2.21 3.6-2l51.47 7c-6.62-16.91 8.11-37.44 12.46-42.96.62-.78 1.77-.89 2.52-.23l17.33 15.07 47.64-34.79c2.4-1.75 5.82-.49 6.49 2.41l13.47 57.43 22.96-.14c1 0 1.8.83 1.76 1.84-.3 7.03-2.51 32.18-18.55 40.69z" fill="#fae88b" />
			</g>
		</g>
		<g>
			<path d="m343.262 184.193c-32.3-35.31-26.097-83.394-21.897-92.874.61-1.39 2.09-2.21 3.6-2l51.47 7c-6.62-16.91 8.11-37.44 12.46-42.96.62-.78 1.77-.89 2.52-.23l17.33 15.07 39.293-28.695-8.436-35.967c-.67-2.9-4.09-4.16-6.49-2.41l-47.64 34.79-17.33-15.07c-.75-.66-1.9-.55-2.52.23-4.35 5.52-19.08 26.05-12.46 42.96l-51.47-7c-1.51-.21-2.99.61-3.6 2-4.2 9.48-17.15 46.23 15.15 81.54l-21.22 8.75c-1.14.47-1.46 1.94-.61 2.83 4.302 4.526 16.384 16.531 34.332 25.143 10.121 5.047 17.518 6.893 17.518 6.893z" fill="#f9dd58" />
		</g>
		<path d="m447.826 130.276c-1.135-3.984-5.284-6.294-9.269-5.156l-44.594 12.713 12.077-32.695 17.533-8.506c3.727-1.808 5.282-6.295 3.475-10.021-1.808-3.727-6.294-5.28-10.021-3.475l-11.031 5.351-2.017-13.849c-.597-4.099-4.408-6.94-8.503-6.341-4.099.597-6.938 4.404-6.341 8.503l3.219 22.099-11.679 31.617-20.195-39.217c-1.896-3.683-6.42-5.13-10.102-3.234-3.683 1.896-5.13 6.419-3.234 10.102l26.484 51.429-32.211 87.204c-1.436 3.885.551 8.199 4.437 9.634.857.317 1.734.467 2.598.467 3.05 0 5.917-1.875 7.036-4.903l32.037-86.731 55.146-15.721c3.982-1.136 6.291-5.286 5.155-9.27z" fill="#e19974" />
		<g>
			<path d="m460.654 374.913h-98.572c-4.142 0-7.5-3.358-7.5-7.5s3.358-7.5 7.5-7.5h98.572c7.104 0 12.883-5.779 12.883-12.883s-5.779-12.884-12.883-12.884h-10.921c-4.142 0-7.5-3.358-7.5-7.5s3.358-7.5 7.5-7.5h10.921c15.375 0 27.883 12.509 27.883 27.884s-12.508 27.883-27.883 27.883z" fill="#e8ad8c" />
		</g>
		<g>
			<path d="m428.084 452.074h-7.784c-4.142 0-7.5-3.358-7.5-7.5s3.358-7.5 7.5-7.5h7.785c2.773 0 5.029-2.256 5.029-5.029s-2.256-5.029-5.029-5.029h-92.835c-4.142 0-7.5-3.358-7.5-7.5s3.358-7.5 7.5-7.5h92.834c11.044 0 20.029 8.985 20.029 20.029s-8.985 20.029-20.029 20.029z" fill="#e8ad8c" />
		</g>
		<g>
			<path d="m176.733 74.802h-118.925c-4.142 0-7.5-3.358-7.5-7.5s3.358-7.5 7.5-7.5h118.925c4.142 0 7.5 3.358 7.5 7.5s-3.358 7.5-7.5 7.5z" fill="#e8ad8c" />
		</g>
		<g>
			<path d="m224.788 74.802h-8.326c-4.142 0-7.5-3.358-7.5-7.5s3.358-7.5 7.5-7.5h8.326c4.142 0 7.5 3.358 7.5 7.5s-3.358 7.5-7.5 7.5z" fill="#e8ad8c" />
		</g>
		<g>
			<path d="m135.167 123.193h-104.425c-4.142 0-7.5-3.358-7.5-7.5s3.358-7.5 7.5-7.5h104.424c4.142 0 7.5 3.358 7.5 7.5s-3.357 7.5-7.499 7.5z" fill="#e8ad8c" />
		</g>
		<g>
			<path d="m42.707 467.188h-35.207c-4.142 0-7.5-3.358-7.5-7.5s3.358-7.5 7.5-7.5h35.207c4.142 0 7.5 3.358 7.5 7.5s-3.358 7.5-7.5 7.5z" fill="#e8ad8c" />
		</g>
	</g>
</svg>
