<svg id="Layer_1" height="512" viewBox="0 0 128 128" width="512" xmlns="http://www.w3.org/2000/svg" data-name="Layer 1"><circle cx="80.188" cy="57.241" fill="#fece34" r="23.289"/><path d="m80.188 38.371q-.519 0-1.031.027a1.75 1.75 0 0 0 .092 3.5h.1q.418-.023.843-.022a1.75 1.75 0 0 0 0-3.5z" fill="#fff"/><path d="m72.8 39.875a18.851 18.851 0 0 0 -11.481 17.366 1.75 1.75 0 0 0 3.5 0 15.356 15.356 0 0 1 9.35-14.146 1.75 1.75 0 1 0 -1.372-3.22z" fill="#fff"/><path d="m73.064 62.169a18.053 18.053 0 0 0 -2.492.192 22.7 22.7 0 0 0 -44.834 5.08c0 .735.038 1.461.106 2.179-.426-.038-.855-.065-1.291-.065a14.3 14.3 0 0 0 0 28.607h48.51a18 18 0 1 0 0-35.993z" fill="#67b2fc"/><g fill="#fd9d27"><path d="m80.188 17.929a1.75 1.75 0 0 0 -1.75 1.75v7.339a1.75 1.75 0 1 0 3.5 0v-7.339a1.75 1.75 0 0 0 -1.75-1.75z"/><path d="m105.511 29.443-5.19 5.19a1.75 1.75 0 1 0 2.475 2.475l5.19-5.19a1.75 1.75 0 0 0 -2.475-2.475z"/><path d="m117.75 55.491h-7.34a1.75 1.75 0 0 0 0 3.5h7.34a1.75 1.75 0 0 0 0-3.5z"/><path d="m102.8 77.374a1.75 1.75 0 0 0 -2.475 2.475l5.19 5.19a1.75 1.75 0 1 0 2.475-2.475z"/><path d="m54.866 29.443a1.75 1.75 0 0 0 -2.475 2.475l5.19 5.19a1.75 1.75 0 0 0 2.475-2.475z"/></g><path d="m46.625 51.507a1.751 1.751 0 0 0 -2.072-1.354q-.476.1-.932.218a1.75 1.75 0 1 0 .879 3.389q.379-.1.776-.181a1.75 1.75 0 0 0 1.349-2.072z" fill="#fff"/><path d="m38.481 52.6c-5.6 3.633-7.6 9.934-7.6 14.619a1.75 1.75 0 0 0 3.5 0c0-3.766 1.577-8.812 6-11.682a1.75 1.75 0 1 0 -1.9-2.937z" fill="#fff"/><path d="m63.706 85.275a11.559 11.559 0 0 1 1.6.123 14.538 14.538 0 0 1 28.707 3.252c0 .471-.024.936-.068 1.395.273-.024.548-.042.827-.042a9.159 9.159 0 0 1 0 18.317h-31.066a11.523 11.523 0 1 1 0-23.046z" fill="#fff"/></svg>