<?xml version="1.0" encoding="utf-8"?>
<!-- Generator: Adobe Illustrator 19.2.0, SVG Export Plug-In . SVG Version: 6.00 Build 0)  -->
<svg version="1.1" xmlns="http://www.w3.org/2000/svg" xmlns:xlink="http://www.w3.org/1999/xlink" x="0px" y="0px"
	 viewBox="0 0 512 512" style="enable-background:new 0 0 512 512;" xml:space="preserve">
<style type="text/css">
	.moon-st0{fill:#EFE2DD;}
	.moon-st1{fill:#CDBFBA;}
	.moon-st2{fill:#B9ACAC;}
	.moon-st3{opacity:0.5;fill:#513D37;}
</style>
<g id="Layer_1">
	<path class="moon-st0" d="M512,256c0,141.4-114.6,256-256,256C114.6,512,0,397.4,0,256C0,114.6,114.6,0,256,0C397.4,0,512,114.6,512,256
		z"/>
	<path class="moon-st1" d="M466.1,109.7c-13.3,24.7-39.5,41.5-69.6,41.5c-43.6,0-79-35.4-79-79c0-22.6,9.5-42.9,24.7-57.4
		C392.7,32.9,435.9,66.4,466.1,109.7z"/>
	<path class="moon-st2" d="M466.1,109.7c-13.3,24.7-39.5,41.5-69.6,41.5c-32.7,0-60.8-19.9-72.8-48.2c14.5,16.3,35.6,26.5,59,26.5
		c29.2,0,54.6-15.8,68.3-39.3C456.4,96.5,461.4,103,466.1,109.7z"/>
	<g>
		<path class="moon-st1" d="M260.9,109.7c0,23-18.6,41.6-41.6,41.6c-23,0-41.6-18.6-41.6-41.6c0-23,18.6-41.6,41.6-41.6
			C242.3,68.1,260.9,86.7,260.9,109.7z"/>
		<path class="moon-st2" d="M260.9,109.7c0,23-18.6,41.6-41.6,41.6c-10.9,0-20.8-4.2-28.2-11c4.3,1.5,9,2.4,13.8,2.4
			c23,0,41.6-18.6,41.6-41.6c0-12.1-5.2-23-13.4-30.6C249.3,76.1,260.9,91.5,260.9,109.7z"/>
	</g>
	<path class="moon-st1" d="M447.9,325.8c0,13.1-10.6,23.7-23.7,23.7s-23.7-10.6-23.7-23.7s10.6-23.7,23.7-23.7S447.9,312.7,447.9,325.8z"
		/>
	<path class="moon-st2" d="M447.9,325.8c0,13.1-10.6,23.7-23.7,23.7c-7.7,0-14.5-3.6-18.8-9.3c1.7,0.4,3.6,0.6,5.5,0.6
		c13.1,0,23.7-10.6,23.7-23.7c0-5.4-1.8-10.4-4.9-14.4C440.1,305.2,447.9,314.6,447.9,325.8z"/>
	<path class="moon-st1" d="M288.1,212.4c0,9.3-7.6,16.9-16.9,16.9c-9.3,0-16.9-7.6-16.9-16.9s7.6-16.9,16.9-16.9
		C280.5,195.5,288.1,203,288.1,212.4z"/>
	<path class="moon-st1" d="M262.3,359.6c0,18.7-15.1,33.8-33.8,33.8c-18.7,0-33.8-15.1-33.8-33.8c0-18.7,15.2-33.8,33.8-33.8
		C247.2,325.8,262.3,341,262.3,359.6z"/>
	<path class="moon-st2" d="M262.3,359.6c0,18.7-15.1,33.8-33.8,33.8c-9,0-17.1-3.5-23.1-9.2c1.8,0.3,3.6,0.4,5.5,0.4
		c18.7,0,33.8-15.2,33.8-33.8c0-9.7-4.1-18.5-10.7-24.7C250.1,328.9,262.3,342.8,262.3,359.6z"/>
	<g>
		<path class="moon-st1" d="M149.5,374.9c0,9.3-7.6,16.9-16.9,16.9c-9.3,0-16.9-7.6-16.9-16.9s7.6-16.9,16.9-16.9
			C142,358,149.5,365.6,149.5,374.9z"/>
		<path class="moon-st1" d="M378.1,195.5c0,5.1-4.1,9.2-9.2,9.2c-5.1,0-9.2-4.1-9.2-9.2s4.1-9.2,9.2-9.2
			C373.9,186.2,378.1,190.4,378.1,195.5z"/>
		<path class="moon-st1" d="M187,246.8c0,5.1-4.1,9.2-9.2,9.2s-9.2-4.1-9.2-9.2s4.1-9.2,9.2-9.2S187,241.7,187,246.8z"/>
		<path class="moon-st1" d="M401,246.1c0,5.1-4.1,9.2-9.2,9.2s-9.2-4.1-9.2-9.2s4.1-9.2,9.2-9.2S401,241,401,246.1z"/>
		<path class="moon-st1" d="M134.2,151.2c0,5.1-4.1,9.2-9.2,9.2s-9.2-4.1-9.2-9.2s4.1-9.2,9.2-9.2S134.2,146.1,134.2,151.2z"/>
	</g>
	<g>
		<path class="moon-st1" d="M109.8,270.7c0,11.9-9.6,21.5-21.5,21.5c-11.9,0-21.5-9.6-21.5-21.5c0-11.9,9.6-21.5,21.5-21.5
			C100.2,249.2,109.8,258.8,109.8,270.7z"/>
		<path class="moon-st2" d="M109.8,270.7c0,11.9-9.6,21.5-21.5,21.5c-5.6,0-10.8-2.2-14.6-5.7c2.2,0.8,4.6,1.2,7.2,1.2
			c11.9,0,21.5-9.6,21.5-21.5c0-6.3-2.7-11.9-6.9-15.8C103.8,253.3,109.8,261.3,109.8,270.7z"/>
	</g>
	<g>
		<path class="moon-st1" d="M303.9,465.8c0,14.7-11.9,26.6-26.6,26.6c-14.7,0-26.6-11.9-26.6-26.6c0-14.7,11.9-26.6,26.6-26.6
			C292,439.2,303.9,451.1,303.9,465.8z"/>
		<path class="moon-st2" d="M303.9,465.8c0,14.7-11.9,26.6-26.6,26.6c-7,0-13.3-2.7-18-7c2.8,1,5.7,1.5,8.8,1.5
			c14.7,0,26.6-11.9,26.6-26.6c0-7.7-3.3-14.7-8.6-19.5C296.5,444.4,303.9,454.2,303.9,465.8z"/>
	</g>
</g>
<g id="Layer_2">
	<path class="moon-st3" d="M256,0L256,0L256,0c-57.9,0-104.8,114.6-104.8,256v0v0c0,141.4,46.9,256,104.8,256h0h0
		c141.4,0,256-114.6,256-256v0v0C512,114.6,397.4,0,256,0z"/>
</g>
</svg>
