<svg viewBox="0 -23 473.673 473" xmlns="http://www.w3.org/2000/svg">
	<path d="m175.574219 166.195312c31.242187 0 56.570312-25.328124 56.570312-56.570312s-25.328125-56.566406-56.570312-56.566406c-31.242188 0-56.566407 25.324218-56.566407 56.566406.035157 31.230469 25.339844 56.535156 56.566407 56.570312zm0-97.136718c22.40625 0 40.570312 18.164062 40.570312 40.566406 0 22.40625-18.164062 40.570312-40.570312 40.570312s-40.566407-18.164062-40.566407-40.570312c.023438-22.394531 18.171876-40.542969 40.566407-40.566406zm0 0" />
	<path d="m424.800781 194.453125c-.554687-2.527344-2.292969-4.628906-4.667969-5.644531l-86.320312-36.945313c-1.960938-.839843-4.171875-.863281-6.148438-.0625l-58.527343 23.660157c29.460937-44.046876 24.082031-102.707032-12.902344-140.660157-.605469-.9375-1.398437-1.742187-2.335937-2.355469-20.757813-20.570312-48.800782-32.109374-78.027344-32.109374-41.640625-.164063-79.992188 22.597656-99.796875 59.230468-19.804688 36.628906-17.84375 81.1875 5.097656 115.9375l-27.636719 11.828125c-2.375 1.015625-4.113281 3.117188-4.667968 5.644531l-48.683594 222.480469c-.625 2.859375.363281 5.832031 2.574218 7.75 2.210938 1.917969 5.292969 2.476563 8.035157 1.457031l103.277343-38.472656 120.464844 36.175782c1.453125.433593 3 .449218 4.460938.039062l120.5625-33.789062 103.382812 37.546874c2.742188.996094 5.804688.421876 8-1.5 2.195313-1.921874 3.171875-4.882812 2.546875-7.730468zm-255.9375 71.964844c3.109375 3.109375 8.144531 3.128906 11.277344.039062l48.941406-48.25-.234375 185.746094-106.222656-31.902344 17.800781-134.074219zm76.238281-63.980469 78.5-31.738281 26.65625 203.90625-105.410156 29.542969zm-138.101562-157.570312c18.125-18.234376 42.792969-28.453126 68.503906-28.375h.316406c25.480469-.070313 49.90625 10.144531 67.753907 28.328124.015625.015626.027343-.007812.042969.007813 18.203124 18.054687 28.445312 42.628906 28.453124 68.265625.007813 25.636719-10.21875 50.214844-28.410156 68.28125l-69.097656 68.117188-68.046875-68.050782c-18.070313-18.195312-28.15625-42.835937-28.03125-68.480468-.03125-25.609376 10.246094-50.152344 28.519531-68.09375zm-43.378906 155.554687 27.65625-11.839844c1.257812 1.40625 2.554687 2.785157 3.886718 4.136719l31.011719 31.011719-19.675781 148.207031-87.550781 32.613281zm302.699218 173.628906-26.429687-202.183593 70.160156 30.027343 44.699219 204.273438zm0 0" />
</svg>
