<svg viewBox="0 0 512 512" xmlns="http://www.w3.org/2000/svg">
	<path d="m256 136c66.269531 0 120 53.730469 120 120s-53.730469 120-120 120-120-53.730469-120-120 53.730469-120 120-120zm0 0" fill="#ffcf57" />
	<path d="m346 236c0 5.523438-4.476562 10-10 10s-10-4.476562-10-10 4.476562-10 10-10 10 4.476562 10 10zm0 0" />
	<path d="m256 386c71.683594 0 130-58.316406 130-130s-58.316406-130-130-130-130 58.316406-130 130 58.316406 130 130 130zm0-240c60.652344 0 110 49.347656 110 110s-49.347656 110-110 110-110-49.347656-110-110 49.347656-110 110-110zm0 0" />
	<path d="m256 346c41.085938 0 76.933594-27.792969 87.175781-67.589844 1.375-5.347656-1.84375-10.796875-7.191406-12.175781-5.351563-1.375-10.800781 1.84375-12.179687 7.191406-7.964844 30.957031-35.847657 52.574219-67.804688 52.574219-5.523438 0-10 4.476562-10 10s4.476562 10 10 10zm0 0" />
	<path d="m266 76v-66c0-5.523438-4.476562-10-10-10s-10 4.476562-10 10v66c0 5.523438 4.476562 10 10 10s10-4.476562 10-10zm0 0" />
	<path d="m246 436v66c0 5.523438 4.476562 10 10 10s10-4.476562 10-10v-66c0-5.523438-4.476562-10-10-10s-10 4.476562-10 10zm0 0" />
	<path d="m416.878906 174.660156 51.96875-30c4.785156-2.761718 6.421875-8.875 3.664063-13.660156-2.761719-4.78125-8.878907-6.421875-13.660157-3.660156l-51.972656 30c-4.78125 2.761718-6.421875 8.878906-3.660156 13.660156 2.769531 4.796875 8.890625 6.414062 13.660156 3.660156zm0 0" />
	<path d="m39.488281 381c2.769531 4.796875 8.890625 6.414062 13.660157 3.660156l51.96875-30c4.785156-2.761718 6.421874-8.875 3.664062-13.660156-2.761719-4.78125-8.878906-6.421875-13.660156-3.660156l-51.972656 30c-4.78125 2.761718-6.421876 8.875-3.660157 13.660156zm0 0" />
	<path d="m108.78125 171c2.761719-4.78125 1.121094-10.898438-3.660156-13.660156l-51.972656-30c-4.78125-2.761719-10.898438-1.121094-13.660157 3.660156-2.757812 4.785156-1.121093 10.898438 3.664063 13.660156l51.96875 30c4.75 2.746094 10.882812 1.152344 13.660156-3.660156zm0 0" />
	<path d="m406.878906 354.660156 51.972656 30c4.75 2.746094 10.878907 1.152344 13.660157-3.660156 2.757812-4.78125 1.121093-10.898438-3.664063-13.660156l-51.96875-30c-4.78125-2.761719-10.898437-1.121094-13.660156 3.660156-2.761719 4.785156-1.121094 10.898438 3.660156 13.660156zm0 0" />
	<path d="m354.660156 105.121094 30-51.972656c2.761719-4.78125 1.121094-10.898438-3.660156-13.660157s-10.898438-1.121093-13.660156 3.664063l-30 51.96875c-2.761719 4.78125-1.121094 10.898437 3.660156 13.660156 4.753906 2.742188 10.882812 1.152344 13.660156-3.660156zm0 0" />
	<path d="m157.339844 406.878906-30 51.972656c-2.761719 4.78125-1.121094 10.898438 3.660156 13.660157 4.753906 2.742187 10.882812 1.148437 13.660156-3.664063l30-51.96875c2.761719-4.78125 1.121094-10.898437-3.660156-13.660156-4.785156-2.761719-10.898438-1.121094-13.660156 3.660156zm0 0" />
	<path d="m171 108.78125c4.78125-2.761719 6.421875-8.878906 3.660156-13.660156l-30-51.96875c-2.761718-4.785156-8.875-6.421875-13.660156-3.664063-4.78125 2.761719-6.421875 8.878907-3.660156 13.660157l30 51.972656c2.769531 4.796875 8.890625 6.410156 13.660156 3.660156zm0 0" />
	<path d="m341 403.21875c-4.78125 2.761719-6.421875 8.878906-3.660156 13.660156l30 51.96875c2.769531 4.800782 8.890625 6.414063 13.660156 3.664063 4.78125-2.761719 6.421875-8.878907 3.660156-13.660157l-30-51.972656c-2.761718-4.78125-8.875-6.421875-13.660156-3.660156zm0 0" />
	<path d="m10 266h66c5.523438 0 10-4.476562 10-10s-4.476562-10-10-10h-66c-5.523438 0-10 4.476562-10 10s4.476562 10 10 10zm0 0" />
	<path d="m512 256c0-5.523438-4.476562-10-10-10h-66c-5.523438 0-10 4.476562-10 10s4.476562 10 10 10h66c5.523438 0 10-4.476562 10-10zm0 0" />
</svg>
