<svg viewBox="0 -8 512 512" xmlns="http://www.w3.org/2000/svg">
	<path d="m459.65625 396.347656c-.511719 8.984375-8.242188 15.859375-17.234375 15.859375h-183.527344c-13.769531 0-38.574219-15.46875-38.574219-42.949219 0-32.882812 34.660157-52.105468 61.914063-38.554687 3.261719 1.625 7.195313-.070313 8.117187-3.59375 6.585938-25.164063 29.472657-43.730469 56.703126-43.730469 5 0 9.855468.621094 14.492187 1.804688 19.132813 4.867187 34.511719 19.152344 40.90625 37.621094.902344 2.597656 3.519531 4.136718 6.25 3.773437 26.441406-3.503906 47.46875 22.355469 39.449219 47.285156-.824219 2.570313.269531 5.402344 2.640625 6.675781 5.558593 2.980469 9.242187 8.984376 8.863281 15.808594zm0 0" fill="#97bffd" />
	<path d="m367.261719 308.882812c0 8.378907-1.9375 15.820313-5.109375 22.242188-9.15625 18.621094-28.546875 28.765625-40.714844 28.765625h-40.148438c3.0625 4.015625 5.589844 8.464844 7.4375 13.25 1.273438 3.292969 4.539063 5.421875 8.050782 5.128906 20.164062-1.714843 36.527344 15.007813 36.394531 33.9375h-74.277344c-13.769531 0-38.574219-15.46875-38.574219-42.949219 0-32.882812 34.660157-52.105468 61.914063-38.554687 3.261719 1.625 7.195313-.070313 8.117187-3.59375 6.585938-25.164063 29.472657-43.730469 56.703126-43.730469 5 0 9.855468.621094 14.492187 1.804688 3.617187 6.894531 5.714844 14.886718 5.714844 23.699218zm0 0" fill="#5596fb" />
	<path d="m504.460938 227.851562c-.421876 11.25-10.007813 19.992188-21.269532 19.992188h-261.84375c-16.363281 0-45.824218-18.367188-45.824218-51.007812 0-17.96875 8.714843-32.503907 21.269531-41.394532 15.941406-11.273437 38.0625-13.472656 56.453125-2.078125 1.734375 1.074219 4.035156.089844 4.414062-1.917969 6.082032-32.242187 34.390625-56.632812 68.40625-56.632812 8.941406 0 17.496094 1.6875 25.34375 4.757812 10.1875 3.984376 19.210938 10.308594 26.410156 18.300782 6.835938 7.597656 12.023438 16.699218 15.003907 26.757812.433593 1.457032 1.910156 2.320313 3.402343 2.019532 32.863282-6.667969 59.835938 25.183593 49.867188 55.808593-.621094 1.894531.785156 3.84375 2.78125 3.84375h34.828125c11.734375 0 21.191406 9.734375 20.757813 21.550781zm0 0" fill="#0956c6" />
	<path d="m357.472656 247.84375h-136.125c-16.363281 0-45.824218-18.367188-45.824218-51.007812 0-17.96875 8.714843-32.503907 21.269531-41.394532 3.542969-.554687 7.167969-.84375 10.863281-.84375 8.8125 0 17.242188 1.636719 25 4.625 20.589844 7.929688 36.46875 25.367188 42.25 46.925782 1.144531 4.285156 5.910156 6.554687 9.886719 4.597656 29.851562-14.714844 67.089843 3.5625 72.679687 37.097656zm0 0" fill="#0a4499" />
	<path d="m364.089844 472.210938c.441406 9.273437-6.949219 16.921874-16.121094 16.921874h-203.929688c-12.71875 0-35.613281-14.269531-35.613281-39.644531 0-22.707031 17.886719-38.355469 37.4375-39.570312 5.742188-.359375 11.625.523437 17.246094 2.84375 4.34375 1.792969 9.363281-.574219 10.800781-5.0625 7.015625-21.757813 27.421875-37.507813 51.519532-37.507813 23.007812 0 42.648437 14.351563 50.480468 34.589844 1.273438 3.292969 4.535156 5.417969 8.050782 5.128906 21.546874-1.835937 38.742187 17.382813 36.132812 37.851563-.613281 4.816406 3.09375 9.082031 7.941406 9.082031h19.472656c6.742188 0 12.765626 4.027344 15.304688 9.886719.742188 1.695312 1.183594 3.535156 1.277344 5.480469zm0 0" fill="#0a3575" />
	<path d="m362.8125 466.730469h-182.652344c-12.714844 0-35.609375-14.273438-35.609375-39.648438 0-5.289062.441407-11.160156 1.3125-17.164062 5.742188-.359375 11.625.523437 17.246094 2.84375 4.34375 1.792969 9.363281-.574219 10.800781-5.0625 7.015625-21.757813 27.421875-37.507813 51.519532-37.507813 23.007812 0 42.648437 14.351563 50.480468 34.589844 1.273438 3.292969 4.535156 5.417969 8.050782 5.128906 21.546874-1.835937 38.742187 17.382813 36.132812 37.851563-.613281 4.816406 3.09375 9.082031 7.941406 9.082031h19.472656c6.742188 0 12.765626 4.027344 15.304688 9.886719zm0 0" fill="#0a4499" />
	<path d="m233.367188 104.097656c-.1875 7.917969-6.96875 14.105469-14.890626 14.105469h-157.597656c-11.835937 0-33.136718-13.28125-33.136718-36.890625 0-14.964844 8.363281-26.636719 19.695312-32.578125 10.59375-5.542969 23.789062-6.085937 35.207031.363281 1.921875 1.085938 4.328125.058594 4.800781-2.097656 4.96875-22.574219 25.09375-39.46875 49.175782-39.46875 22.484375 0 41.535156 14.742188 47.992187 35.101562.484375 1.523438 2 2.507813 3.578125 2.230469 24.410156-4.308593 44.003906 20.652344 34.15625 43.359375-.1875.449219-.390625.890625-.609375 1.34375 6.742188 1.335938 11.796875 7.359375 11.628907 14.53125zm0 0" fill="#0a66ea" />
	<path d="m222.347656 88.21875h-137.511718c-12.996094 0-36.113282-14.183594-37.398438-39.488281 10.59375-5.542969 23.789062-6.082031 35.207031.367187 1.921875 1.085938 4.328125.058594 4.800781-2.097656 4.96875-22.578125 25.09375-39.472656 49.175782-39.472656 22.484375 0 41.535156 14.746094 47.992187 35.101562.484375 1.527344 2 2.507813 3.578125 2.230469 24.410156-4.308594 44.007813 20.65625 34.15625 43.359375zm0 0" fill="#2476ed" />
	<path d="m336.476562 287.546875c0 8.382813-1.9375 15.820313-5.109374 22.242187-9.15625 18.621094-28.546876 28.769532-40.714844 28.769532h-261.847656c-11.257813 0-20.851563-8.75-21.261719-20-.433594-11.816406 9.019531-21.546875 20.753906-21.546875h34.824219c2 0 3.40625-1.949219 2.785156-3.847657-9.96875-30.625 17.003906-62.476562 49.871094-55.808593 1.492187.304687 2.972656-.566407 3.40625-2.03125 8.53125-28.785157 35.191406-49.796875 66.75-49.796875 8.8125 0 17.246094 1.636718 25.003906 4.628906 23.546875 9.0625 40.933594 30.5625 44.09375 56.449219 33.113281-24.652344 81.445312-1.386719 81.445312 40.941406zm0 0" fill="#0a66ea" />
	<path d="m336.476562 287.546875c0 8.382813-1.9375 15.820313-5.109374 22.242187h-218.105469c-11.257813 0-20.851563-8.746093-21.265625-19.996093-.433594-11.816407 9.023437-21.546875 20.753906-21.546875h34.828125c1.996094 0 3.402344-1.949219 2.785156-3.847656-9.960937-30.625 17-62.476563 49.867188-55.800782 1.488281.304688 2.972656-.5625 3.402343-2.019531 1.726563-5.832031 4.199219-11.34375 7.304688-16.425781 21.585938 8.308594 37.992188 27.066406 43.011719 50.074218.628906 2.886719 3.921875 4.300782 6.492187 2.84375 32.710938-18.585937 76.035156 4.402344 76.035156 44.476563zm0 0" fill="#2476ed" />
	<path d="m483.703125 198.78125h-28.90625c6.375-33.085938-21.519531-64.261719-56.007813-60.152344-10.800781-30.554687-39.757812-51.332031-72.722656-51.332031-35.132812 0-65.355468 23.675781-74.398437 56.660156-32.214844-15.363281-71.132813 2.066407-81.171875 35.59375-26.308594 5.339844-48.199219 24.097657-57.285156 49.773438-34.394532-4.316407-62.464844 27.296875-56.019532 60.164062h-28.894531c-15.609375 0-28.296875 12.6875-28.296875 28.296875 0 15.597656 12.6875 28.296875 28.296875 28.296875h16.46875c4.15625 0 7.53125-3.375 7.53125-7.527343 0-4.15625-3.375-7.53125-7.53125-7.53125h-16.46875c-7.308594 0-13.242187-5.941407-13.242187-13.238282 0-7.308594 5.933593-13.238281 13.242187-13.238281h39.0625c5.433594 0 9.050781-5.582031 6.917969-10.511719-11.621094-26.878906 13.011718-56.519531 42.246094-48.769531 4.039062 1.066406 8.199218-1.367187 9.226562-5.429687 5.460938-21.550782 21.789062-38.003907 42.265625-44.144532 36.710937-11.074218 74.871094 13.636719 79.546875 51.832032.691406 5.722656 7.347656 8.570312 11.964844 5.117187 17.460937-12.976563 40.445312-10.539063 55.335937 2.730469 25.082031 22.328125 14.964844 64.664062-17.453125 74.519531-6.601562 1.980469-3.523437.769531-67.082031 1.132813h-155.449219c-4.15625 0-7.527344 3.375-7.527344 7.53125 0 4.152343 3.371094 7.527343 7.527344 7.527343h143.445313c-2.832031 5.488281-4.617188 11.511719-5.257813 17.824219-21.953125 4.5-39.902344 20.707031-46.535156 42.148438-29.742188-12.660157-65.636719 8.222656-65.636719 43.433593 0 28.796875 25.546875 47.175781 43.144531 47.175781h203.929688c13.046875 0 23.667969-10.621093 23.667969-23.667968 0-13.058594-10.621094-23.679688-23.667969-23.679688h-20.496094c1.464844-10.308594-1.074218-20.847656-7.289062-29.582031h76.898437c4.15625 0 7.527344-3.371094 7.527344-7.527344 0-4.164062-3.371094-7.527343-7.527344-7.527343h-96.660156c-5.492187-1.976563-11.382813-2.761719-17.335937-2.238282-8.621094-22.816406-30.03125-38.535156-54.683594-39.707031 1.144531-6.585937 3.996094-12.1875 7.929687-16.652344h54.320313c21.039062 0 51.292968-21.339843 53.25-55.078125 24.21875-1.628906 46.597656 14.433594 52.667968 38.386719.5 1.945313 1.753907 3.621094 3.480469 4.636719 4.179688 2.460937 6.15625-.242188 13.472657-.242188 20.203124 0 35.53125 21.925782 25.84375 41.785156-2.148438 4.402344.445312 9.722657 5.3125 10.679688 4.324218.863281 7.476562 4.699219 7.476562 9.125 0 5.128906-4.175781 9.304688-9.304688 9.304688h-15.65625c-4.167968 0-7.53125 3.363281-7.53125 7.527343 0 4.15625 3.363282 7.527344 7.53125 7.527344h15.65625c24.300782 0 33.65625-31.996094 12.910157-45.007813 8.378906-29.523437-16.390625-58.835937-46.6875-55.765624-10.226563-27.667969-37.460938-44.867188-66.195313-42.980469-1.433594-7.417969-4.277344-14.382813-8.390625-20.609375h149.214844c15.609375 0 28.296875-12.695313 28.296875-28.292969 0-15.609375-12.6875-28.296875-28.296875-28.296875zm-216.015625 205.898438c3.695312 7.84375 2.191406 10.304687 6.386719 12.777343 1.726562 1.015625 3.792969 1.304688 5.738281.78125 21.640625-5.714843 39.25 16.207031 30.875 35.625-2.164062 5.023438 1.554688 10.507813 6.90625 10.507813h30.375c4.746094 0 8.613281 3.867187 8.613281 8.625 0 4.746094-3.867187 8.609375-8.613281 8.609375h-203.929688c-8.402343 0-28.085937-10.929688-28.085937-32.117188 0-18.957031 15.464844-32.101562 32.261719-32.101562 16.902344 0 18.6875 10.53125 26.46875 7.195312 2.46875-1.050781 4.183594-3.339843 4.515625-6 2.367187-19.324219 16.441406-34.699219 34.578125-39.386719 21.566406-5.566406 44.414062 4.917969 53.910156 25.484376zm216.015625-164.363282h-163.730469c-17.078125-12.28125-39.894531-15.160156-59.640625-5.671875-8.945312-32.5625-38.542969-56.066406-73.125-56.621093 11.148438-23.464844 42.625-32.933594 65.265625-16.089844 4.613282 3.449218 11.273438.609375 11.964844-5.117188 3.804688-31.058594 30.292969-54.464844 61.628906-54.464844 28.457032 0 53.199219 19.230469 60.183594 46.773438 1.023438 4.050781 5.175781 6.5 9.226562 5.429688 29.582032-7.832032 53.722657 22.132812 42.246094 48.773437-2.132812 4.925781 1.480469 10.507813 6.917969 10.507813h39.0625c7.308594 0 13.242187 5.933593 13.242187 13.242187 0 7.296875-5.933593 13.238281-13.242187 13.238281zm0 0" />
	<path d="m60.875 125.730469h158.039062c21.625 0 30.167969-28.078125 12.308594-40.195313 6.65625-25.429687-14.019531-50.648437-40.613281-48.558594-8.515625-22.078124-29.820313-36.976562-53.996094-36.976562-25.523437 0-47.597656 16.671875-55.128906 40.199219-28.421875-11.671875-61.273437 8.855469-61.273437 41.113281 0 27.113281 24.085937 44.417969 40.664062 44.417969zm21.269531-67.988281c4.625 3.441406 11.265625.609374 11.96875-5.125 2.621094-21.414063 20.890625-37.5625 42.503907-37.5625 19.625 0 36.695312 13.269531 41.511718 32.265624 1.027344 4.058594 5.175782 6.5 9.222656 5.425782 20.15625-5.335938 36.335938 15.628906 27.617188 33.523437-2.160156 4.433594.464844 9.722657 5.304688 10.679688 3.226562.640625 5.570312 3.5 5.570312 6.796875 0 3.820312-3.109375 6.929687-6.929688 6.929687h-158.039062c-7.660156 0-25.609375-9.988281-25.609375-29.363281 0-24.625 28.050781-37.589844 46.878906-23.570312zm0 0" />
</svg>
