<?xml version="1.0" encoding="utf-8"?>
<svg version="1.1" id="Layer_1" xmlns="http://www.w3.org/2000/svg" xmlns:xlink="http://www.w3.org/1999/xlink" x="0px" y="0px" viewBox="0 0 512 511" style="enable-background:new 0 0 512 511;" xml:space="preserve">
	<path fill="#0A66EA" d="M457.7,390.2c-0.2,7.9-7,14.1-14.9,14.1H285.2c-11.8,0-33.1-13.3-33.1-36.9c0-15,8.4-26.6,19.7-32.6
	c10.6-5.5,23.8-6.1,35.2,0.4c1.9,1.1,4.3,0.1,4.8-2.1c5-22.6,25.1-39.5,49.2-39.5c22.5,0,41.5,14.7,48,35.1c0.5,1.5,2,2.5,3.6,2.2
	c24.4-4.3,44,20.7,34.2,43.4c-0.2,0.4-0.4,0.9-0.6,1.3C452.8,377,457.8,383,457.7,390.2z" />
	<path fill="#2476ED" d="M446.7,374.3H309.1c-13,0-23.4,0.3-50.8,0.6c-1.2-43.9,33.8-48.5,48.6-39.7c1.9,1.1,4.3,0.1,4.8-2.1
	c5-22.6,25.1-39.5,49.2-39.5c22.5,0,41.5,14.7,48,35.1c0.5,1.5,2,2.5,3.6,2.2C436.9,326.6,456.5,351.6,446.7,374.3z" />
	<path fill="#0A4499" d="M312.1,341.9c-36.6-17.9-52.7,3.1-52.7,21.9h72.4c26.4,0.5,47.8-30.6,48-61.7
	C349.7,282.7,318.9,308.8,312.1,341.9z" />
	<path d="M284.9,412.1h158c21.6,0,30.2-28.1,12.3-40.2c6.7-25.4-14-50.6-40.6-48.6c-8.5-22.1-29.8-37-54-37
	c-25.5,0-47.6,16.7-55.1,40.2c-28.4-11.7-61.3,8.9-61.3,41.1C244.3,394.8,268.4,412.1,284.9,412.1z M306.2,344.1
	c4.6,3.4,11.3,0.6,12-5.1c2.6-21.4,20.9-37.6,42.5-37.6c19.6,0,36.7,13.3,41.5,32.3c1,4.1,5.2,6.5,9.2,5.4
	c20.2-5.3,36.3,15.6,27.6,33.5c-2.2,4.4,0.5,9.7,5.3,10.7c3.2,0.6,5.6,3.5,5.6,6.8c0,3.8-3.1,6.9-6.9,6.9H285
	c-7.7,0-25.6-10-25.6-29.4C259.3,343,287.4,330.1,306.2,344.1z" />
	<path fill="#2476ED" d="M239.3,155.9c3.6,1.8,8-0.1,9-4c5.5-22,21.5-39.8,42.4-47.8c7.8-3,16.2-4.6,25-4.6c31.6,0,58.2,21.1,66.7,49.9
	c0.4,1.4,1.7,2.2,3.1,1.9c33-6.9,60.1,25.2,49.9,55.9c-0.6,1.8,0.8,3.6,2.6,3.6h35.1c11.7,0,23.5,11.1,23.1,22.9
	c-0.4,11.2-12.4,18.5-23.6,18.5H211.2c-12.1,0-31.5-10.1-40.6-28.7c-3.2-6.4-5.1-13.8-5.1-22.2C165.5,162.1,207,139.3,239.3,155.9z" />
	<path fill="#0A4499" d="M370.3,244.6H211.1c-17.8,0-49.8-18.4-49.8-51c0-13.8,5.6-25.6,14.4-34.3c9.8-4.2,20.7-6.6,32.1-6.6
	c9.6,0,18.7,1.6,27.2,4.6c25.6,9.1,44.5,30.6,47.9,56.4C315.9,191.1,362.8,208.8,370.3,244.6z" />
	<path d="M166.6,198.7c0-33.5,36.3-52.2,67-38c10.5,5.8,17.7-0.7,18.6-4c5.3-18.8,22.5-45.5,42.3-52.4c7.4-2.5,14.4-3.5,22.7-3.5
	c29.9,0,52.9,27.2,60.9,51.9c1,4.5,6.4,3.4,7.7,3.2c31.3-5.9,60,13.1,47.5,52.1c-1,3.3-0.7,6.8,4.3,7.3l35.8,1.7
	c11.1,0,22.2,4.7,21.8,14.8c-0.4,9.6-16.1,10.4-26.8,10.4H220.5c-11.5,0-36.9-6.9-45.6-22.8C171.9,213.9,166.6,205.9,166.6,198.7z
	 M150.9,199.3c0,9.2,2.1,17.3,5.6,24.4c10.1,20.5,31.3,31.6,44.7,31.6h287.5c12.3,0,22.8-9.6,23.3-22c0.4-13-10.6-27.9-23.5-27.9
	l-36.2-0.4c-2,0-4-1.8-3.7-3.8c5-34.8-16.9-59-55.6-57c-1.6,0-3.1-0.6-3.5-2.1c-9.3-31.7-38.6-54.9-73.3-54.9
	c-9.7,0-19,1.8-27.5,5.1c-23,8.9-40.6,28.4-46.7,52.6c-1.1,4.3-6,6.4-9.9,4.4C196.5,131.1,150.8,156.2,150.9,199.3z" />
	<path fill="#0A4499" d="M349,294.3c0,8.4-1.9,15.8-5.1,22.2c-9.1,18.6-28.5,28.7-40.6,28.7H41.9c-11.2,0-23.2-7.3-23.6-18.5
	c-0.4-11.8,11.4-22.9,23.1-22.9h35.1c1.8,0,3.2-1.8,2.6-3.6C68.9,269.5,96,237.4,129,244.3c1.4,0.3,2.7-0.5,3.1-1.9
	c8.5-28.8,35.1-49.9,66.7-49.9c8.8,0,17.2,1.6,25,4.6c20.9,8,36.9,25.8,42.4,47.8c1,3.9,5.4,5.8,9,4
	C307.5,232.3,349,255.1,349,294.3z" />
	<path fill="#0956C6" d="M347.6,292.1c0,8.4-1.9,15.8-5.1,22.2H124.8c-11.2,0-20.8-8.7-21.2-20c-0.4-11.8,9-21.5,20.7-21.5h31.3
	c3.6,0,6.2-3.4,5.4-6.8c-7.2-28.9,17.7-57.8,48.5-53.1c2.7,0.4,5.3-1.1,6.2-3.7c1.7-5.1,3.9-9.9,6.6-14.3
	c20.9,8,36.9,25.8,42.4,47.8c1,3.9,5.4,5.8,9,4C306.1,230.1,347.6,253,347.6,292.1z" />
	<path d="M339.6,312.4c-8.7,15.9-34.1,22.8-45.6,22.8H46.1c-10.7,0-26.4-0.8-26.8-10.4C18.9,314.7,30,310,41.1,310l35.8-1.7
	c5-0.5,5.3-4,4.3-7.3c-12.5-39,16.2-58,47.5-52.1c1.3,0.2,6.7,1.3,7.7-3.2c8-24.7,31-51.9,60.9-51.9c8.3,0,15.3,1,22.7,3.5
	c19.8,6.9,37,33.6,42.3,52.4c0.9,3.3,8.1,9.8,18.6,4c30.7-14.2,67,4.5,67,38C347.9,298.9,342.6,306.9,339.6,312.4z M282.4,242.3
	c-3.9,2-8.8-0.1-9.9-4.4c-6.1-24.2-23.7-43.7-46.7-52.6c-8.5-3.3-17.8-5.1-27.5-5.1c-34.7,0-64,23.2-73.3,54.9
	c-0.4,1.5-1.9,2.1-3.5,2.1c-38.7-2-60.6,22.2-55.6,57c0.3,2-1.7,3.8-3.7,3.8L26,298.4c-12.9,0-23.9,14.9-23.5,27.9
	c0.5,12.4,11,22,23.3,22h287.5c13.4,0,34.6-11.1,44.7-31.6c3.5-7.1,5.6-15.2,5.6-24.4C363.7,249.2,318,224.1,282.4,242.3z" />
	<path fill="#B3B3B3" d="M223,369c-80.6-12.6-106.2,56.1-223,28v114h512V374C371.8,480.5,307.3,383.7,223,369z" />
	<path fill="#555555" d="M134.7,488.2h-81c-5,0-9.1-4.1-9.1-9.1l0,0c0-5,4.1-9.1,9.1-9.1h81c5,0,9.1,4.1,9.1,9.1l0,0
	C143.9,484.1,139.7,488.2,134.7,488.2z" />
	<path fill="#555555" d="M240.8,423.7h-81c-5,0-9.1-4.1-9.1-9.1l0,0c0-5,4.1-9.1,9.1-9.1h81c5,0,9.1,4.1,9.1,9.1l0,0
	C249.9,419.6,245.8,423.7,240.8,423.7z" />
	<path fill="#555555" d="M423.7,484.5h-81c-5,0-9.1-4.1-9.1-9.1l0,0c0-5,4.1-9.1,9.1-9.1h81c5,0,9.1,4.1,9.1,9.1l0,0
	C432.8,480.4,428.7,484.5,423.7,484.5z" />
</svg>
