<?xml version="1.0" encoding="utf-8"?>
<svg version="1.1" id="Layer_1" xmlns="http://www.w3.org/2000/svg" xmlns:xlink="http://www.w3.org/1999/xlink" x="0px" y="0px" viewBox="0 0 512 512" style="enable-background:new 0 0 512 512;" xml:space="preserve">
	<g id="Layer_1_1_">
		<path fill="#97BFFD" d="M459.7,330.4c-0.5,9-8.2,15.9-17.2,15.9H258.9c-13.8,0-38.6-15.5-38.6-42.9c0-32.9,34.7-52.1,61.9-38.6
		c3.3,1.6,7.2-0.1,8.1-3.6c6.6-25.2,29.5-43.7,56.7-43.7c5,0,9.9,0.6,14.5,1.8c19.1,4.9,34.5,19.2,40.9,37.6
		c0.9,2.6,3.5,4.1,6.2,3.8c26.4-3.5,47.5,22.4,39.4,47.3c-0.8,2.6,0.3,5.4,2.6,6.7C456.4,317.6,460,323.6,459.7,330.4z" />
		<path fill="#5596FB" d="M367.3,243c0,8.4-1.9,15.8-5.1,22.2c-9.2,18.6-28.5,28.8-40.7,28.8h-40.1c3.1,4,5.6,8.5,7.4,13.2
		c1.3,3.3,4.5,5.4,8.1,5.1c20.2-1.7,36.5,15,36.4,33.9H259c-13.8,0-38.6-15.5-38.6-42.9c0-32.9,34.7-52.1,61.9-38.6
		c3.3,1.6,7.2-0.1,8.1-3.6c6.6-25.2,29.5-43.7,56.7-43.7c5,0,9.9,0.6,14.5,1.8C365.2,226.2,367.3,234.2,367.3,243z" />
		<path fill="#0956C6" d="M504.5,161.9c-0.4,11.2-10,20-21.3,20H221.3c-16.4,0-45.8-18.4-45.8-51c0-18,8.7-32.5,21.3-41.4
		c15.9-11.3,38.1-13.5,56.5-2.1c1.7,1.1,4,0.1,4.4-1.9c6.1-32.2,34.4-56.6,68.4-56.6c8.9,0,17.5,1.7,25.3,4.8
		c10.2,4,19.2,10.3,26.4,18.3c6.8,7.6,12,16.7,15,26.8c0.4,1.5,1.9,2.3,3.4,2c32.9-6.7,59.8,25.2,49.9,55.8
		c-0.6,1.9,0.8,3.8,2.8,3.8h34.8C495.4,140.4,504.9,150.1,504.5,161.9z" />
		<path fill="#0A4499" d="M357.5,181.9H221.3c-16.4,0-45.8-18.4-45.8-51c0-18,8.7-32.5,21.3-41.4c3.5-0.6,7.2-0.8,10.9-0.8
		c8.8,0,17.2,1.6,25,4.6c20.6,7.9,36.5,25.4,42.3,46.9c1.1,4.3,5.9,6.6,9.9,4.6C314.6,130.1,351.9,148.4,357.5,181.9z" />
		<path fill="#0A66EA" d="M336.5,221.6c0,8.4-1.9,15.8-5.1,22.2c-9.2,18.6-28.5,28.8-40.7,28.8H28.8c-11.3,0-20.9-8.8-21.3-20
		c-0.4-11.8,9-21.5,20.8-21.5h34.8c2,0,3.4-1.9,2.8-3.8c-10-30.6,17-62.5,49.9-55.8c1.5,0.3,3-0.6,3.4-2
		c8.5-28.8,35.2-49.8,66.7-49.8c8.8,0,17.2,1.6,25,4.6c23.5,9.1,40.9,30.6,44.1,56.4C288.1,156,336.5,179.3,336.5,221.6z" />
		<path fill="#2476ED" d="M336.5,221.6c0,8.4-1.9,15.8-5.1,22.2H113.3c-11.3,0-20.9-8.7-21.3-20c-0.4-11.8,9-21.5,20.8-21.5h34.8
		c2,0,3.4-1.9,2.8-3.8c-10-30.6,17-62.5,49.9-55.8c1.5,0.3,3-0.6,3.4-2c1.7-5.8,4.2-11.3,7.3-16.4c21.6,8.3,38,27.1,43,50.1
		c0.6,2.9,3.9,4.3,6.5,2.8C293.2,158.6,336.5,181.6,336.5,221.6z" />
		<path d="M483.7,132.9h-28.9c6.4-33.1-21.5-64.3-56-60.2C388,42.2,359,21.4,326.1,21.4c-35.1,0-65.4,23.7-74.4,56.7
		c-32.2-15.4-71.1,2.1-81.2,35.6c-26.3,5.3-48.2,24.1-57.3,49.8c-34.4-4.3-62.5,27.3-56,60.2H28.3C12.7,223.6,0,236.3,0,251.9
		s12.7,28.3,28.3,28.3h16.5c4.2,0,7.5-3.4,7.5-7.5c0-4.2-3.4-7.5-7.5-7.5H28.3c-7.3,0-13.2-5.9-13.2-13.2s5.9-13.2,13.2-13.2h39.1
		c5.4,0,9.1-5.6,6.9-10.5c-11.6-26.9,13-56.5,42.2-48.8c4,1.1,8.2-1.4,9.2-5.4c5.5-21.6,21.8-38,42.3-44.1
		c36.7-11.1,74.9,13.6,79.5,51.8c0.7,5.7,7.3,8.6,12,5.1c17.5-13,40.4-10.5,55.3,2.7c25.1,22.3,15,64.7-17.5,74.5
		c-6.6,2-3.5,0.8-67.1,1.1H74.9c-4.2,0-7.5,3.4-7.5,7.5c0,4.2,3.4,7.5,7.5,7.5h143.4c-2.8,5.5-4.6,11.5-5.3,17.8
		c0,30.7,22.8,55.6,50.9,55.6l133.1,0.3c4.2,0,7.5-3.4,7.5-7.5c0-4.2-3.4-7.5-7.5-7.5h-96.7c-7.1,0-11.7-0.1-18-0.1
		c-35.6-0.2-53.3-9.6-54-41.8c1.1-6.6,4-12.2,7.9-16.7h54.3c21,0,51.3-21.3,53.2-55.1c24.2-1.6,46.6,14.4,52.7,38.4
		c0.5,1.9,1.8,3.6,3.5,4.6c4.2,2.5,6.2-0.2,13.5-0.2c20.2,0,35.5,21.9,25.8,41.8c-2.1,4.4,0.4,9.7,5.3,10.7c4.3,0.9,7.5,4.7,7.5,9.1
		c0,5.1-4.2,9.3-9.3,9.3H427c-4.2,0-7.5,3.4-7.5,7.5c0,4.2,3.4,7.5,7.5,7.5h15.7c24.3,0,33.7-32,12.9-45
		c8.4-29.5-16.4-58.8-46.7-55.8c-10.2-27.7-37.5-44.9-66.2-43c-1.4-7.4-4.3-14.4-8.4-20.6h149.2c15.6,0,28.3-12.7,28.3-28.3
		C512,145.6,499.3,132.9,483.7,132.9z M483.7,174.4H320c-17.1-12.3-39.9-15.2-59.6-5.7c-8.9-32.6-38.5-56.1-73.1-56.6
		c11.1-23.5,42.6-32.9,65.3-16.1c4.6,3.4,11.3,0.6,12-5.1c3.8-31.1,30.3-54.5,61.6-54.5c28.5,0,53.2,19.2,60.2,46.8
		c1,4.1,5.2,6.5,9.2,5.4c29.6-7.8,53.7,22.1,42.2,48.8c-2.1,4.9,1.5,10.5,6.9,10.5h39.1c7.3,0,13.2,5.9,13.2,13.2
		C496.9,168.5,491,174.4,483.7,174.4z" />
	</g>
	<g id="Layer_2_1_">
		<path d="M397.8,419c-0.7,0.2-1.6,0.1-2.2-0.3l-11.6-6.8l-5.9,12c-0.3,0.7-1,1.2-1.7,1.4c-0.3,0.1-0.6,0.1-1,0.1
		c-1.1-0.1-2.1-0.8-2.5-1.9l-4.5-12.6l-12.3,5.4c-0.1,0.1-0.2,0.1-0.3,0.1c-1,0.3-2,0-2.7-0.6c-0.8-0.8-1.1-2-0.7-3l4.7-12.6
		l-12.9-3.7c-1.1-0.3-1.9-1.2-2-2.4c-0.1-1.1,0.4-2.2,1.4-2.8l11.7-6.6l-7.5-11.1c-0.6-0.9-0.6-2.2,0-3.1c0.4-0.5,0.9-1,1.5-1.1
		c0.4-0.1,0.9-0.2,1.3-0.1l13.2,2.4l1.4-13.3c0.1-1.1,0.9-2.1,2-2.4s2.2,0,3,0.9l8.6,10.3l9.7-9.3c0.3-0.3,0.7-0.5,1.1-0.7
		c0.6-0.2,1.3-0.2,1.9,0.1c1,0.4,1.7,1.5,1.7,2.6l-0.1,13.4l13.4-0.9c1.1-0.1,2.2,0.5,2.7,1.5s0.4,2.2-0.4,3.1l-8.7,10.2l10.8,7.9
		c0.9,0.7,1.3,1.8,1.1,2.9c-0.2,1-1,1.8-1.9,2c-0.1,0-0.2,0.1-0.3,0.1l-13.2,2.2l3.2,13c0.3,1.1-0.1,2.2-1,2.9
		C398.4,418.7,398.1,418.9,397.8,419z" />
	</g>
	<path d="M413.8,443.8l-49.1,55.8c-4.6,5.3-14,6.6-20.5,2.8l0,0c-6.7-3.6-8.4-11.1-3.6-16.2l49.1-55.8c4.6-5.3,14-6.6,20.5-2.8l0,0
	C416.7,431.2,418.4,438.5,413.8,443.8z" />
	<g id="Layer_2_2_">
		<path d="M311.6,419c-0.7,0.2-1.6,0.1-2.2-0.3l-11.6-6.8l-5.9,12c-0.3,0.7-1,1.2-1.7,1.4c-0.3,0.1-0.6,0.1-1,0.1
		c-1.1-0.1-2.1-0.8-2.5-1.9l-4.5-12.6l-12.3,5.4c-0.1,0.1-0.2,0.1-0.3,0.1c-1,0.3-2,0-2.7-0.6c-0.8-0.8-1.1-2-0.7-3l4.7-12.6
		l-12.9-3.7c-1.1-0.3-1.9-1.2-2-2.4c-0.1-1.1,0.4-2.2,1.4-2.8l11.7-6.6l-7.5-11.1c-0.6-0.9-0.6-2.2,0-3.1c0.4-0.5,0.9-1,1.5-1.1
		c0.4-0.1,0.9-0.2,1.3-0.1l13.2,2.4l1.4-13.3c0.1-1.1,0.9-2.1,2-2.4s2.2,0,3,0.9l8.6,10.3l9.7-9.3c0.3-0.3,0.7-0.5,1.1-0.7
		c0.6-0.2,1.3-0.2,1.9,0.1c1,0.4,1.7,1.5,1.7,2.6l-0.1,13.4l13.4-0.9c1.1-0.1,2.2,0.5,2.7,1.5s0.4,2.2-0.4,3.1l-8.7,10.2l10.8,7.9
		c0.9,0.7,1.3,1.8,1.1,2.9c-0.2,1-1,1.8-1.9,2c-0.1,0-0.2,0.1-0.3,0.1l-13.2,2.2l3.2,13c0.3,1.1-0.1,2.2-1,2.9
		C312.2,418.7,311.9,418.9,311.6,419z" />
	</g>
	<path d="M327.6,443.8l-49.1,55.8c-4.6,5.3-14,6.6-20.5,2.8l0,0c-6.7-3.6-8.4-11.1-3.6-16.2l49.1-55.8c4.6-5.3,14-6.6,20.5-2.8l0,0
	C330.5,431.2,332.2,438.5,327.6,443.8z" />
</svg>
