<?xml version="1.0" encoding="utf-8"?>
<svg version="1.1" id="Layer_1" xmlns="http://www.w3.org/2000/svg" xmlns:xlink="http://www.w3.org/1999/xlink" x="0px" y="0px" viewBox="0 0 511 511" style="enable-background:new 0 0 511 511;" xml:space="preserve">
	<path fill="#95BFB9" d="M266.1,256.9c-0.4,1.5-1.2,2.9-2.5,4.1c-38.9,35.2-96.3,45.1-146,20.7C53,250,24.8,171.3,54.2,105
	c15.4-34.8,43.3-59.5,75.7-71.5c1.3-0.4,2.5-0.6,3.7-0.4c5.5,0.5,9.4,6.9,6.3,12.5C90,136.5,156.5,248,258,246.3
	C263.9,246.2,267.4,251.9,266.1,256.9z" />
	<path fill="#DCF9F6" d="M266.1,256.9c-33.8,15.7-73.8,16.5-109.7-1.1C93.7,224.9,66.3,148,95.1,83.1c9.1-20.4,22.5-37.3,38.6-50.1
	c5.5,0.5,9.4,6.9,6.3,12.5C90,136.5,156.5,248,258,246.3C263.9,246.2,267.4,251.9,266.1,256.9z" />
	<path d="M245.9,245C146.7,223.6,98.2,122.9,143.7,46.6c3.6-6.1,6.1-17.3,0.1-17.9c-1.3-0.1-7.2-0.6-8.7-0.4
	c-25.7,3.1-68.6,29.1-85.5,67.3c-32.3,73-1.3,159.6,69.6,194.4c54.7,26.9,107.1,12.3,152.2-23.5c6.1-4.9,12.7-14.2,8.5-21.1
	C276.8,240.5,263.3,248.8,245.9,245z M266.1,255.2c0,2.5-9.4,11.5-22.4,17.3c-61.7,30-110.6,21.1-151.5-15.8
	c-30.9-32.5-56.1-88.6-35-146.4c17-38.2,31-48.6,58.7-67.1c2.4-1.9,16.2-7.9,19.8-5.9c1.5,0.9-0.4,1.9-6.7,10.9
	c-36.4,80.3-9.4,171.3,103.1,205.2C260.1,260.3,267.5,249.7,266.1,255.2z" />
	<path fill="#0A4499" d="M445.7,298.8c0,8.4-1.9,15.8-5.1,22.2c-9.1,18.6-28.5,28.7-40.6,28.7H138.6c-11.2,0-23.2-7.3-23.6-18.5
	c-0.4-11.8,11.4-22.9,23.1-22.9h35.1c1.8,0,3.2-1.8,2.6-3.6c-10.2-30.7,16.9-62.8,49.9-55.9c1.4,0.3,2.7-0.5,3.1-1.9
	c8.5-28.8,35.1-49.9,66.7-49.9c8.8,0,17.2,1.6,25,4.6c20.9,8,36.9,25.8,42.4,47.8c1,3.9,5.4,5.8,9,4
	C404.2,236.8,445.7,259.6,445.7,298.8z" />
	<path fill="#0956C6" d="M444.3,296.6c0,8.4-1.9,15.8-5.1,22.2H221.5c-11.2,0-20.8-8.7-21.2-20c-0.4-11.8,9-21.5,20.7-21.5h31.3
	c3.6,0,6.2-3.4,5.4-6.8c-7.2-28.9,17.7-57.8,48.5-53.1c2.7,0.4,5.3-1.1,6.2-3.7c1.7-5.1,3.9-9.9,6.6-14.3
	c20.9,8,36.9,25.8,42.4,47.8c1,3.9,5.4,5.8,9,4C402.8,234.6,444.3,257.5,444.3,296.6z" />
	<path d="M436.3,316.9c-8.7,15.9-34.1,22.8-45.6,22.8H142.8c-10.7,0-26.4-0.8-26.8-10.4c-0.4-10.1,10.7-14.8,21.8-14.8l35.8-1.7
	c5-0.5,5.3-4,4.3-7.3c-12.5-39,16.2-58,47.5-52.1c1.3,0.2,6.7,1.3,7.7-3.2c8-24.7,31-51.9,60.9-51.9c8.3,0,15.3,1,22.7,3.5
	c19.8,6.9,37,33.6,42.3,52.4c0.9,3.3,8.1,9.8,18.6,4c30.7-14.2,67,4.5,67,38C444.6,303.4,439.3,311.4,436.3,316.9z M379.1,246.8
	c-3.9,2-8.8-0.1-9.9-4.4c-6.1-24.2-23.7-43.7-46.7-52.6c-8.5-3.3-17.8-5.1-27.5-5.1c-34.7,0-64,23.2-73.3,54.9
	c-0.4,1.5-1.9,2.1-3.5,2.1c-38.7-2-60.6,22.2-55.6,57c0.3,2-1.7,3.8-3.7,3.8l-36.2,0.4c-12.9,0-23.9,14.9-23.5,27.9
	c0.5,12.4,11,22,23.3,22H410c13.4,0,34.6-11.1,44.7-31.6c3.5-7.1,5.6-15.2,5.6-24.4C460.4,253.7,414.7,228.6,379.1,246.8z" />
	<path d="M282.6,401.3l-49.1,55.8c-4.6,5.3-14,6.6-20.5,2.8l0,0c-6.7-3.6-8.4-11.1-3.6-16.2l49.1-55.8c4.6-5.3,14-6.6,20.5-2.8l0,0
	C285.5,388.7,287.2,396,282.6,401.3z" />
	<path d="M252.3,115.2h15.1l-6.3,6.3c-4.7,4.7-1.3,12.8,5.3,12.8c4.9,0,6.5-4,11.6-8.5v15.1c0,4.1,3.4,7.5,7.5,7.5s7.5-3.4,7.5-7.5
	v-15.1l6.3,6.3c2.9,2.9,7.7,2.9,10.6,0s2.9-7.7,0-10.6l-6.3-6.3h15.1c4.1,0,7.5-3.4,7.5-7.5s-3.4-7.5-7.5-7.5h-15.1l6.3-6.3
	c2.9-2.9,2.9-7.7,0-10.6s-7.7-2.9-10.6,0l-6.3,6.3V74.5c0-4.1-3.4-7.5-7.5-7.5c-4.2,0-7.5,3.4-7.5,7.5v15.1l-6.3-6.3
	c-2.9-2.9-7.7-2.9-10.6,0s-2.9,7.7,0,10.6l6.3,6.3h-15.1c-4.1,0-7.5,3.4-7.5,7.5C244.7,111.8,248.1,115.2,252.3,115.2z" />
	<path d="M400.2,199.9h15.1l-6.3,6.3c-4.7,4.7-1.3,12.8,5.3,12.8c4.9,0,6.5-4,11.6-8.5v15.1c0,4.1,3.4,7.5,7.5,7.5s7.5-3.4,7.5-7.5
	v-15.1l6.3,6.3c2.9,2.9,7.7,2.9,10.6,0s2.9-7.7,0-10.6l-6.3-6.3h15.1c4.1,0,7.5-3.4,7.5-7.5s-3.4-7.5-7.5-7.5h-15.1l6.3-6.3
	c2.9-2.9,2.9-7.7,0-10.6c-2.9-2.9-7.7-2.9-10.6,0l-6.3,6.3v-15.1c0-4.1-3.4-7.5-7.5-7.5c-4.2,0-7.5,3.4-7.5,7.5v15.1l-6.3-6.3
	c-2.9-2.9-7.7-2.9-10.6,0c-2.9,2.9-2.9,7.7,0,10.6l6.3,6.3h-15.1c-4.1,0-7.5,3.4-7.5,7.5C392.6,196.5,396,199.9,400.2,199.9z" />
	<path d="M356,48.2h15.1l-6.3,6.3c-4.7,4.7-1.3,12.8,5.3,12.8c4.9,0,6.5-4,11.6-8.5v15.1c0,4.1,3.4,7.5,7.5,7.5s7.5-3.4,7.5-7.5V58.8
	l6.3,6.3c2.9,2.9,7.7,2.9,10.6,0s2.9-7.7,0-10.6l-6.3-6.3h15.1c4.1,0,7.5-3.4,7.5-7.5s-3.4-7.5-7.5-7.5h-15.1l6.3-6.3
	c2.9-2.9,2.9-7.7,0-10.6s-7.7-2.9-10.6,0l-6.3,6.3V7.5c0-4.1-3.4-7.5-7.5-7.5c-4.2,0-7.5,3.4-7.5,7.5v15.1l-6.3-6.3
	c-2.9-2.9-7.7-2.9-10.6,0s-2.9,7.7,0,10.6l6.3,6.3H356c-4.1,0-7.5,3.4-7.5,7.5C348.4,44.8,351.8,48.2,356,48.2z" />
</svg>
