<?xml version="1.0" encoding="utf-8"?>
<svg version="1.1" id="Layer_1" xmlns="http://www.w3.org/2000/svg" xmlns:xlink="http://www.w3.org/1999/xlink" x="0px" y="0px" viewBox="0 0 511 511" style="enable-background:new 0 0 511 511;" xml:space="preserve">
	<g>
		<path fill="#FFB52D" d="M436.8,150.1c0,7.5-1.1,14.8-3.1,21.6c-9.3,31.4-38.4,54.3-72.8,54.3c-41.9,0-75.9-34-75.9-75.9
		c0-32.7,20.7-60.6,49.6-71.2c8.2-3,17-4.7,26.3-4.7C402.8,74.2,436.8,108.2,436.8,150.1z" />
		<path fill="#FFC14F" d="M436.8,150.1c0,7.5-1.1,14.8-3.1,21.6c-8.2,3-17,4.7-26.3,4.7c-41.9,0-75.9-34-75.9-75.9
		c0-7.5,1.1-14.8,3.1-21.6c8.2-3,17-4.7,26.3-4.7C402.8,74.2,436.8,108.2,436.8,150.1z" />
		<path d="M360.9,49.5c4.1,0,7.5-3.4,7.5-7.5V7.5c0-4.2-3.4-7.5-7.5-7.5c-4.2,0-7.5,3.4-7.5,7.5V42C353.4,46.2,356.7,49.5,360.9,49.5
		z" />
		<path d="M300.4,60.3c1.4,2.4,3.9,3.8,6.5,3.8c5.7,0,9.4-6.2,6.5-11.3l-17.3-29.9c-2.1-3.6-6.7-4.8-10.3-2.8s-4.8,6.7-2.8,10.3
		L300.4,60.3z" />
		<path d="M233.7,85.3l29.9,17.3c3.6,2.1,8.2,0.9,10.3-2.8c2.1-3.6,0.8-8.2-2.8-10.3l-29.9-17.3c-3.6-2.1-8.2-0.8-10.3,2.8
		S230.1,83.2,233.7,85.3z" />
		<path d="M450.7,210.6l29.9,17.3c3.6,2.1,8.2,0.9,10.3-2.8c2.1-3.6,0.8-8.2-2.8-10.3l-29.9-17.3c-3.6-2.1-8.2-0.8-10.3,2.8
		C445.9,204,447.1,208.6,450.7,210.6z" />
		<path d="M461.5,150.1c0,4.2,3.4,7.5,7.5,7.5h34.5c4.2,0,7.5-3.4,7.5-7.5s-3.4-7.5-7.5-7.5H469C464.8,142.6,461.5,146,461.5,150.1z" />
		<path d="M454.5,103.6c3.6,0,2.8-0.8,33.6-18.3c3.6-2.1,4.8-6.7,2.8-10.3s-6.7-4.8-10.3-2.8l-29.9,17.3
		C444.1,93.4,446.8,103.6,454.5,103.6z" />
		<path d="M414.9,64c2.6,0,5.1-1.3,6.5-3.8l17.3-29.9c2.1-3.6,0.8-8.2-2.8-10.3s-8.2-0.8-10.3,2.8l-17.3,29.9
		C405.5,57.8,409.2,64,414.9,64z" />
		<path d="M425.5,277.3c1.4,2.4,3.9,3.8,6.5,3.8c5.7,0,9.4-6.2,6.5-11.3l-17.3-29.9c-2.1-3.6-6.7-4.8-10.3-2.8s-4.8,6.7-2.8,10.3
		L425.5,277.3z" />
		<path d="M356.5,303.1c4.1,0,7.5-3.4,7.5-7.5V261c0-4.2-3.4-7.5-7.5-7.5c-4.2,0-7.5,3.4-7.5,7.5v34.5
		C349,299.7,352.4,303.1,356.5,303.1z" />
		<path d="M287.6,284.1c2.6,0,5.1-1.3,6.5-3.8l17.3-29.9c2.1-3.6,0.8-8.2-2.8-10.3s-8.2-0.8-10.3,2.8L281,272.8
		C278.1,277.8,281.8,284.1,287.6,284.1z" />
		<path d="M238.1,236.6c3.6,0,2.8-0.8,33.6-18.3c3.6-2.1,4.8-6.7,2.8-10.3s-6.7-4.8-10.3-2.8l-29.9,17.3
		C227.7,226.4,230.4,236.6,238.1,236.6z" />
		<path d="M213.4,155.4c0,4.2,3.4,7.5,7.5,7.5h34.5c4.2,0,7.5-3.4,7.5-7.5s-3.4-7.5-7.5-7.5h-34.5
		C216.7,147.9,213.4,151.2,213.4,155.4z" />
		<path d="M361,67.8c-10.2,0-19.9,1.9-28.9,5.2c-31.8,11.7-54.6,42.3-54.6,78.3c0,46.1,37.4,83.5,83.5,83.5
		c37.8,0,69.9-25.2,80.1-59.7c2.2-7.5,3.4-15.5,3.4-23.8C444.5,105.2,407.1,67.8,361,67.8z M426.9,171.1
		c-8.4,28.3-34.6,48.9-65.5,48.9c-37.7,0-68.3-30.6-68.3-68.3c0-29.4,18.6-54.5,44.6-64.1c7.4-2.7,15.3-4.2,23.7-4.2
		c37.7,0,68.3,30.6,68.3,68.3C429.7,158.4,428.7,165,426.9,171.1z" />
	</g>
	<path fill="#97BFFD" d="M375.7,367.8c0,8.4-1.9,15.8-5.1,22.2c-9.1,18.6-28.5,28.7-40.6,28.7H68.6c-11.2,0-23.2-7.3-23.6-18.5
	c-0.4-11.8,11.4-22.9,23.1-22.9h35.1c1.8,0,3.2-1.8,2.6-3.6c-10.2-30.7,16.9-62.8,49.9-55.9c1.4,0.3,2.7-0.5,3.1-1.9
	c8.5-28.8,35.1-49.9,66.7-49.9c8.8,0,17.2,1.6,25,4.6c20.9,8,36.9,25.8,42.4,47.8c1,3.9,5.4,5.8,9,4
	C334.2,305.8,375.7,328.6,375.7,367.8z" />
	<path fill="#B9D3FD" d="M374.3,365.6c0,8.4-1.9,15.8-5.1,22.2H151.5c-11.2,0-20.8-8.7-21.2-20c-0.4-11.8,9-21.5,20.7-21.5h31.3
	c3.6,0,6.2-3.4,5.4-6.8c-7.2-28.9,17.7-57.8,48.5-53.1c2.7,0.4,5.3-1.1,6.2-3.7c1.7-5.1,3.9-9.9,6.6-14.3
	c20.9,8,36.9,25.8,42.4,47.8c1,3.9,5.4,5.8,9,4C332.8,303.6,374.3,326.5,374.3,365.6z" />
	<path d="M366.3,385.9c-8.7,15.9-34.1,22.8-45.6,22.8H72.8c-10.7,0-26.4-0.8-26.8-10.4c-0.4-10.1,10.7-14.8,21.8-14.8l35.8-1.7
	c5-0.5,5.3-4,4.3-7.3c-12.5-39,16.2-58,47.5-52.1c1.3,0.2,6.7,1.3,7.7-3.2c8-24.7,31-51.9,60.9-51.9c8.3,0,15.3,1,22.7,3.5
	c19.8,6.9,37,33.6,42.3,52.4c0.9,3.3,8.1,9.8,18.6,4c30.7-14.2,67,4.5,67,38C374.6,372.4,369.3,380.4,366.3,385.9z M309.1,315.8
	c-3.9,2-8.8-0.1-9.9-4.4c-6.1-24.2-23.7-43.7-46.7-52.6c-8.5-3.3-17.8-5.1-27.5-5.1c-34.7,0-64,23.2-73.3,54.9
	c-0.4,1.5-1.9,2.1-3.5,2.1c-38.7-2-60.6,22.2-55.6,57c0.3,2-1.7,3.8-3.7,3.8l-36.2,0.4c-12.9,0-23.9,14.9-23.5,27.9
	c0.5,12.4,11,22,23.3,22H340c13.4,0,34.6-11.1,44.7-31.6c3.5-7.1,5.6-15.2,5.6-24.4C390.4,322.7,344.7,297.6,309.1,315.8z" />
	<path d="M178.4,448l-49.1,55.8c-4.6,5.3-14,6.6-20.5,2.8l0,0c-6.7-3.6-8.4-11.1-3.6-16.2l49.1-55.8c4.6-5.3,14-6.6,20.5-2.8l0,0
	C181.3,435.4,183,442.7,178.4,448z" />
	<path d="M264.4,448l-49.1,55.8c-4.6,5.3-14,6.6-20.5,2.8l0,0c-6.7-3.6-8.4-11.1-3.6-16.2l49.1-55.8c4.6-5.3,14-6.6,20.5-2.8l0,0
	C267.3,435.4,269,442.7,264.4,448z" />
</svg>
