<?xml version="1.0" encoding="utf-8"?>
<svg version="1.1" id="Layer_1" xmlns="http://www.w3.org/2000/svg" xmlns:xlink="http://www.w3.org/1999/xlink" x="0px" y="0px" viewBox="0 0 512 511" style="enable-background:new 0 0 512 511;" xml:space="preserve">
	<g>
		<path fill="#95BFB9" d="M248.1,231.1c-0.4,1.5-1.2,2.9-2.5,4.1c-38.9,35.2-96.3,45.1-146,20.7C35,224.2,6.9,145.6,36.2,79.2
		c15.4-34.8,43.3-59.5,75.8-71.5c1.3-0.4,2.5-0.6,3.7-0.4c5.5,0.5,9.4,6.9,6.3,12.5c-49.9,90.9,16.5,202.5,118,200.8
		C245.9,220.4,249.4,226.1,248.1,231.1z" />
		<path fill="#DCF9F6" d="M248.1,231.1c-33.8,15.7-73.8,16.5-109.7-1.1C75.8,199.1,48.3,122.2,77.2,57.3C86.2,36.9,99.7,20,115.8,7.2
		c5.5,0.5,9.4,6.9,6.3,12.5c-50,90.9,16.4,202.5,117.9,200.8C245.9,220.4,249.4,226.1,248.1,231.1z" />
		<path d="M227.9,219.3C128.8,197.8,80.2,97.1,125.8,20.8c3.6-6.1,6.1-17.3,0.1-17.9c-1.3-0.1-7.2-0.6-8.7-0.4
		C91.4,5.6,48.6,31.6,31.7,69.8c-32.3,73-1.3,159.6,69.6,194.4c54.7,26.9,107.1,12.3,152.2-23.5c6.1-4.9,12.7-14.2,8.5-21.1
		C258.9,214.8,245.4,223,227.9,219.3z M248.1,229.4c0,2.5-9.4,11.5-22.4,17.3c-61.7,30-110.6,21.1-151.5-15.8
		c-30.9-32.5-56.1-88.6-35-146.4c17-38.2,31-48.6,58.7-67.1c2.4-1.9,16.2-7.9,19.8-5.9c1.5,0.9-0.4,1.9-6.7,10.9
		c-36.4,80.3-9.4,171.3,103.1,205.2C242.1,234.6,249.6,223.9,248.1,229.4z" />
	</g>
	<path fill="#0A66EA" d="M456.5,335.5c-0.2,7.9-7,14.1-14.9,14.1H284c-11.8,0-33.1-13.3-33.1-36.9c0-15,8.4-26.6,19.7-32.6
	c10.6-5.5,23.8-6.1,35.2,0.4c1.9,1.1,4.3,0.1,4.8-2.1c5-22.6,25.1-39.5,49.2-39.5c22.5,0,41.5,14.7,48,35.1c0.5,1.5,2,2.5,3.6,2.2
	c24.4-4.3,44,20.7,34.2,43.4c-0.2,0.4-0.4,0.9-0.6,1.3C451.5,322.3,456.5,328.3,456.5,335.5z" />
	<path fill="#2476ED" d="M445.5,319.6H307.9c-13,0-23.4,0.3-50.8,0.6c-1.2-43.9,33.8-48.5,48.6-39.7c1.9,1.1,4.3,0.1,4.8-2.1
	c5-22.6,25.1-39.5,49.2-39.5c22.5,0,41.5,14.7,48,35.1c0.5,1.5,2,2.5,3.6,2.2C435.6,271.9,455.2,296.9,445.5,319.6z" />
	<path fill="#0A4499" d="M310.9,287.2c-36.6-17.9-52.7,3.1-52.7,21.9h72.4c26.4,0.5,47.8-30.6,48-61.7
	C348.5,228,317.6,254.1,310.9,287.2z" />
	<path d="M283.6,357.4h158c21.6,0,30.2-28.1,12.3-40.2c6.7-25.4-14-50.6-40.6-48.6c-8.5-22.1-29.8-37-54-37
	c-25.5,0-47.6,16.7-55.1,40.2c-28.4-11.7-61.3,8.9-61.3,41.1C243.1,340.1,267.1,357.4,283.6,357.4z M305,289.4
	c4.6,3.4,11.3,0.6,12-5.1c2.6-21.4,20.9-37.6,42.5-37.6c19.6,0,36.7,13.3,41.5,32.3c1,4.1,5.2,6.5,9.2,5.4
	c20.2-5.3,36.3,15.6,27.6,33.5c-2.2,4.4,0.5,9.7,5.3,10.7c3.2,0.6,5.6,3.5,5.6,6.8c0,3.8-3.1,6.9-6.9,6.9h-158
	c-7.7,0-25.6-10-25.6-29.4C258,288.3,286.1,275.4,305,289.4z" />
	<path fill="#2476ED" d="M238.1,101.2c3.6,1.8,8-0.1,9-4c5.5-22,21.5-39.8,42.4-47.8c7.8-3,16.2-4.6,25-4.6c31.6,0,58.2,21.1,66.7,49.9
	c0.4,1.4,1.7,2.2,3.1,1.9c33-6.9,60.1,25.2,49.9,55.9c-0.6,1.8,0.8,3.6,2.6,3.6h35.1c11.7,0,23.5,11.1,23.1,22.9
	c-0.4,11.2-12.4,18.5-23.6,18.5H209.9c-12.1,0-31.5-10.1-40.6-28.7c-3.2-6.4-5.1-13.8-5.1-22.2C164.2,107.4,205.8,84.6,238.1,101.2z
	" />
	<path fill="#0A4499" d="M369,189.9H209.9c-17.8,0-49.8-18.4-49.8-51c0-13.8,5.6-25.6,14.4-34.3c9.8-4.2,20.7-6.6,32.1-6.6
	c9.6,0,18.7,1.6,27.2,4.6c25.6,9.1,44.5,30.6,47.9,56.4C314.6,136.4,361.5,154.1,369,189.9z" />
	<path d="M165.4,144c0-33.5,36.3-52.2,67-38c10.5,5.8,17.7-0.7,18.6-4c5.3-18.8,22.5-45.5,42.3-52.4c7.4-2.5,14.4-3.5,22.7-3.5
	c29.9,0,52.9,27.2,60.9,51.9c1,4.5,6.4,3.4,7.7,3.2c31.3-5.9,60,13.1,47.5,52.1c-1,3.3-0.7,6.8,4.3,7.3l35.8,1.7
	c11.1,0,22.2,4.7,21.8,14.8c-0.4,9.6-16.1,10.4-26.8,10.4H219.2c-11.5,0-36.9-6.9-45.6-22.8C170.6,159.2,165.4,151.2,165.4,144z
	 M149.6,144.6c0,9.2,2.1,17.3,5.6,24.4c10.1,20.5,31.3,31.6,44.7,31.6h287.5c12.3,0,22.8-9.6,23.3-22c0.4-13-10.6-27.9-23.5-27.9
	l-36.2-0.4c-2,0-4-1.8-3.7-3.8c5-34.8-16.9-59-55.6-57c-1.6,0-3.1-0.6-3.5-2.1c-9.3-31.7-38.6-54.9-73.3-54.9
	c-9.7,0-19,1.8-27.5,5.1c-23,8.9-40.6,28.4-46.7,52.6c-1.1,4.3-6,6.4-9.9,4.4C195.2,76.4,149.6,101.5,149.6,144.6z" />
	<path fill="#0A4499" d="M347.8,239.6c0,8.4-1.9,15.8-5.1,22.2c-9.1,18.6-28.5,28.7-40.6,28.7H40.7c-11.2,0-23.2-7.3-23.6-18.5
	c-0.4-11.8,11.4-22.9,23.1-22.9h35.1c1.8,0,3.2-1.8,2.6-3.6c-10.2-30.7,16.9-62.8,49.9-55.9c1.4,0.3,2.7-0.5,3.1-1.9
	c8.5-28.8,35.1-49.9,66.7-49.9c8.8,0,17.2,1.6,25,4.6c20.9,8,36.9,25.8,42.4,47.8c1,3.9,5.4,5.8,9,4
	C306.2,177.6,347.8,200.4,347.8,239.6z" />
	<path fill="#0956C6" d="M346.4,237.4c0,8.4-1.9,15.8-5.1,22.2H123.6c-11.2,0-20.8-8.7-21.2-20c-0.4-11.8,9-21.5,20.7-21.5h31.3
	c3.6,0,6.2-3.4,5.4-6.8c-7.2-28.9,17.7-57.8,48.5-53.1c2.7,0.4,5.3-1.1,6.2-3.7c1.7-5.1,3.9-9.9,6.6-14.3
	c20.9,8,36.9,25.8,42.4,47.8c1,3.9,5.4,5.8,9,4C304.9,175.4,346.4,198.3,346.4,237.4z" />
	<path d="M338.4,257.7c-8.7,15.9-34.1,22.8-45.6,22.8H44.8c-10.7,0-26.4-0.8-26.8-10.4c-0.4-10.1,10.7-14.8,21.8-14.8l35.8-1.7
	c5-0.5,5.3-4,4.3-7.3c-12.5-39,16.2-58,47.5-52.1c1.3,0.2,6.7,1.3,7.7-3.2c8-24.7,31-51.9,60.9-51.9c8.3,0,15.3,1,22.7,3.5
	c19.8,6.9,37,33.6,42.3,52.4c0.9,3.3,8.1,9.8,18.6,4c30.7-14.2,67,4.5,67,38C346.6,244.2,341.4,252.2,338.4,257.7z M281.1,187.6
	c-3.9,2-8.8-0.1-9.9-4.4c-6.1-24.2-23.7-43.7-46.7-52.6c-8.5-3.3-17.8-5.1-27.5-5.1c-34.7,0-64,23.2-73.3,54.9
	c-0.4,1.5-1.9,2.1-3.5,2.1c-38.7-2-60.6,22.2-55.6,57c0.3,2-1.7,3.8-3.7,3.8l-36.2,0.4c-12.9,0-23.9,14.9-23.5,27.9
	c0.5,12.4,11,22,23.3,22H312c13.4,0,34.6-11.1,44.7-31.6c3.5-7.1,5.6-15.2,5.6-24.4C362.5,194.5,316.8,169.4,281.1,187.6z" />
	<g id="Layer_2_1_">
		<path d="M379.5,420.6c-0.7,0.2-1.6,0.1-2.2-0.3l-11.6-6.8l-5.9,12c-0.3,0.7-1,1.2-1.7,1.4c-0.3,0.1-0.6,0.1-1,0.1
		c-1.1-0.1-2.1-0.8-2.5-1.9l-4.5-12.6l-12.3,5.4c-0.1,0.1-0.2,0.1-0.3,0.1c-1,0.3-2,0-2.7-0.6c-0.8-0.8-1.1-2-0.7-3l4.7-12.6
		l-12.9-3.7c-1.1-0.3-1.9-1.2-2-2.4c-0.1-1.1,0.4-2.2,1.4-2.8l11.7-6.6l-7.5-11.1c-0.6-0.9-0.6-2.2,0-3.1c0.4-0.5,0.9-1,1.5-1.1
		c0.4-0.1,0.9-0.2,1.3-0.1l13.2,2.4l1.4-13.3c0.1-1.1,0.9-2.1,2-2.4s2.2,0,3,0.9l8.6,10.3l9.7-9.3c0.3-0.3,0.7-0.5,1.1-0.7
		c0.6-0.2,1.3-0.2,1.9,0.1c1,0.4,1.7,1.5,1.7,2.6l-0.1,13.4l13.4-0.9c1.1-0.1,2.2,0.5,2.7,1.5s0.4,2.2-0.4,3.1l-8.7,10.2l10.8,7.9
		c0.9,0.7,1.3,1.8,1.1,2.9c-0.2,1-1,1.8-1.9,2c-0.1,0-0.2,0.1-0.3,0.1l-13.2,2.2l3.2,13c0.3,1.1-0.1,2.2-1,2.9
		C380.1,420.3,379.8,420.5,379.5,420.6z" />
	</g>
	<path d="M395.5,445.3l-49.1,55.8c-4.6,5.3-14,6.6-20.5,2.8l0,0c-6.7-3.6-8.4-11.1-3.6-16.2l49.1-55.8c4.6-5.3,14-6.6,20.5-2.8l0,0
	C398.4,432.7,400.1,440,395.5,445.3z" />
</svg>
