<svg viewBox="-1 0 512 512" xmlns="http://www.w3.org/2000/svg">
	<path d="m501.609375 144.285156c0 15.820313-5.164063 29.140625-12.808594 39.695313-13.453125 18.617187-34.597656 28.644531-48.589843 28.644531h-292.792969c-14.789063 0-26.777344-11.988281-26.777344-26.785156 0-13 9.257813-23.835938 21.550781-26.273438-5.328125-10.925781-6.875-22.226562-5.457031-32.851562 4.316406-32.386719 36.238281-58.503906 72.726563-48.839844 10.242187-40.402344 46.84375-70.292969 90.429687-70.292969 47.648437 0 86.949219 35.722657 92.589844 81.84375 44.363281-33.03125 109.128906-1.867187 109.128906 54.859375zm0 0" fill="#2476ed" />
	<path d="m286.515625 183.980469c-6.269531-25.113281-35.941406-37.800781-58.625-24.21875-1.609375.96875-3.691406.078125-4.066406-1.769531-3.65625-18.277344-16.546875-33.226563-33.589844-39.785157-6.023437-2.328125-12.574219-3.589843-19.417969-3.589843-12.917968 0-24.785156 4.527343-34.082031 12.097656-1.417969 10.625.128906 21.925781 5.457031 32.851562-12.292968 2.4375-21.550781 13.273438-21.550781 26.273438 0 14.796875 11.988281 26.785156 26.777344 26.785156h292.792969c13.992187 0 35.136718-10.027344 48.589843-28.644531zm0 0" fill="#0956c6" />
	<path d="m263.066406 223.007812c0 6.507813-1.503906 12.285157-3.96875 17.273438-7.109375 14.460938-22.167968 22.34375-31.617187 22.34375h-203.363281c-8.746094 0-16.195313-6.792969-16.515626-15.53125-.335937-9.175781 7.007813-16.734375 16.117188-16.734375h27.050781c1.550781 0 2.640625-1.515625 2.160157-2.988281-7.742188-23.785156 13.203124-48.523438 38.730468-43.34375 1.160156.234375 2.308594-.441406 2.644532-1.578125 6.628906-22.355469 27.335937-38.675781 51.84375-38.675781 6.84375 0 13.390624 1.269531 19.417968 3.59375 17.042969 6.558593 29.929688 21.507812 33.59375 39.785156.371094 1.847656 2.449219 2.738281 4.0625 1.773437 25.496094-15.265625 59.84375 2.636719 59.84375 34.082031zm0 0" fill="#2476ed" />
	<path d="m263.066406 223.007812c0 6.507813-1.503906 12.285157-3.96875 17.273438h-169.390625c-8.742187 0-16.191406-6.792969-16.511719-15.527344-.335937-9.179687 7.003907-16.738281 16.117188-16.738281h27.046875c1.550781 0 2.644531-1.511719 2.164063-2.984375-7.738282-23.785156 13.203124-48.523438 38.726562-43.335938 1.160156.234376 2.308594-.4375 2.644531-1.570312 1.34375-4.53125 3.257813-8.8125 5.671875-12.753906 17.042969 6.558594 29.929688 21.507812 33.59375 39.785156.371094 1.84375 2.449219 2.738281 4.0625 1.769531 25.496094-15.265625 59.84375 2.636719 59.84375 34.082031zm0 0" fill="#5596fb" />
	<path d="m255.707031 459.457031c-3.507812 0-3.820312-1.414062-22.078125-11.574219l3.246094 9.433594c1.363281 3.960938-.738281 8.277344-4.699219 9.640625-3.964843 1.355469-8.269531-.746093-9.632812-4.710937l-8.917969-25.914063-17.65625-10.199219 1.292969 12.007813c.617187 5.667969-3.820313 10.664063-9.574219 10.664063-5.074219 0-7.015625-3.355469-15.394531-8.96875v20.347656l17.992187 20.683594c2.75 3.164062 2.417969 7.953124-.738281 10.703124-3.152344 2.742188-7.941406 2.417969-10.691406-.746093l-6.5625-7.53125v21.125c0 4.1875-3.386719 7.582031-7.578125 7.582031-4.1875 0-7.582032-3.394531-7.582032-7.582031v-21.125c-5.390624 5.386719-6.855468 10.136719-12.273437 10.136719-6.449219 0-9.984375-7.648438-5.71875-12.5625l17.992187-20.683594v-20.375l-9.746093 7.113281c-6.761719 4.945313-16.171875-.523437-15.261719-8.824219l1.304688-11.9375-17.621094 10.171875-8.914063 25.914063c-1.082031 3.144531-4.023437 5.125-7.167969 5.125-5.195312 0-8.863281-5.132813-7.164062-10.054688l3.242188-9.433594-18.296876 10.554688c-3.605468 2.089844-8.246093.867188-10.359374-2.769531-2.09375-3.628907-.847657-8.257813 2.78125-10.363281l18.292968-10.550782-9.804687-1.910156c-4.101563-.800781-6.792969-4.78125-5.984375-8.894531.800781-4.105469 4.773437-6.792969 8.886718-5.996094l26.90625 5.246094 17.660157-10.199219-11.046875-4.882812c-7.652344-3.375-7.632813-14.261719.007812-17.628907l11-4.839843-17.621094-10.167969-26.90625 5.234375c-4.113281.796875-8.085937-1.878906-8.886718-5.996094-.808594-4.101562 1.882812-8.085938 5.984375-8.882812l9.804687-1.910157-18.292968-10.5625c-3.628907-2.09375-4.875-6.734375-2.78125-10.351562 2.09375-3.628907 6.730468-4.871094 10.359374-2.78125l18.296876 10.5625-3.242188-9.4375c-1.367188-3.964844.734375-8.269531 4.699219-9.636719 3.960937-1.363281 8.269531.75 9.632812 4.703125l8.914063 25.925781 17.660156 10.199219-1.292969-12.007813c-.070312-.6875-.082031-1.355468-.019531-2 .664062-7.148437 9.117188-11.34375 15.292969-6.804687l9.683593 7.105469v-20.347656l-17.992187-20.691407c-2.742187-3.152343-2.40625-7.945312.746094-10.695312 3.164062-2.746094 7.945312-2.414063 10.695312.75l6.550781 7.53125v-21.128907c0-4.183593 3.394532-7.578124 7.582032-7.578124 4.191406 0 7.578125 3.394531 7.578125 7.578124v21.128907l6.5625-7.53125c2.75-3.164063 7.53125-3.496094 10.691406-.75 3.15625 2.75 3.488281 7.542969.738281 10.695312l-17.992187 20.691407v20.378906l9.753906-7.125c3.085937-2.246094 7.207031-2.46875 10.515625-.558594 3.304688 1.910156 5.164062 5.589844 4.75 9.390625l-1.304688 11.9375 17.617188-10.167969 8.917969-25.925781c1.363281-3.953125 5.667969-6.066406 9.632812-4.703125 3.960938 1.367188 6.0625 5.671875 4.699219 9.636719l-3.246094 9.4375 18.296875-10.5625c3.628907-2.089844 8.257813-.847657 10.363281 2.78125 2.089844 3.617187.847657 8.257812-2.78125 10.351562l-18.296874 10.5625 9.804687 1.910157c4.105469.796874 6.792969 4.78125 5.984375 8.882812-.796875 4.117188-4.78125 6.792969-8.882812 5.996094l-26.910157-5.234375-17.660156 10.199219 11.050781 4.871093c7.652344 3.386719 7.632813 14.273438-.011718 17.636719l-10.996094 4.84375 17.617187 10.167969 26.910157-5.246094c4.113281-.796875 8.085937 1.890625 8.882812 5.996094.324219 1.617187.089844 3.222656-.554688 4.609375-.980468 2.140625-2.941406 3.800781-5.429687 4.285156l-9.804687 1.910156 18.296874 10.550782c6.691407 3.871093 3.941407 14.152343-3.800781 14.152343zm0 0" fill="#97bffd" />
	<path d="m259.507812 353.363281-18.296874 10.5625 9.804687 1.910157c4.105469.796874 6.792969 4.78125 5.984375 8.882812-.796875 4.117188-4.78125 6.792969-8.882812 5.996094l-26.910157-5.234375-17.660156 10.199219 11.050781 4.871093c7.652344 3.386719 7.632813 14.273438-.011718 17.636719l-10.996094 4.84375 17.617187 10.167969 26.910157-5.246094c4.113281-.796875 8.085937 1.890625 8.882812 5.996094.324219 1.617187.089844 3.222656-.554688 4.609375-4.316406.472656-8.703124.707031-13.140624.707031-49.1875 0-91.601563-28.941406-111.148438-70.726563.664062-7.148437 9.117188-11.34375 15.292969-6.804687l9.683593 7.105469v-20.347656l-17.992187-20.691407c-2.742187-3.152343-2.40625-7.945312.746094-10.695312 3.164062-2.746094 7.945312-2.414063 10.695312.75l6.550781 7.53125v-21.128907c0-4.183593 3.394532-7.578124 7.582032-7.578124 4.191406 0 7.578125 3.394531 7.578125 7.578124v21.128907l6.5625-7.53125c2.75-3.164063 7.53125-3.496094 10.691406-.75 3.15625 2.75 3.488281 7.542969.738281 10.695312l-17.992187 20.691407v20.378906l9.753906-7.125c3.085937-2.246094 7.207031-2.46875 10.515625-.558594 3.304688 1.910156 5.164062 5.589844 4.75 9.390625l-1.304688 11.9375 17.617188-10.167969 8.917969-25.925781c1.363281-3.953125 5.667969-6.066406 9.632812-4.703125 3.960938 1.367188 6.0625 5.671875 4.699219 9.636719l-3.246094 9.4375 18.296875-10.5625c3.628907-2.089844 8.257813-.847657 10.363281 2.78125 2.089844 3.617187.847657 8.257812-2.78125 10.351562zm0 0" fill="#b9d3fd" />
	<path d="m470.542969 404.457031c-3.507813 0-3.824219-1.414062-22.078125-11.570312l3.246094 9.429687c1.363281 3.960938-.738282 8.277344-4.703126 9.644532-3.960937 1.351562-8.265624-.75-9.632812-4.710938l-8.914062-25.917969-17.660157-10.199219 1.296875 12.007813c.613282 5.671875-3.824218 10.664063-9.574218 10.664063-5.074219 0-7.015626-3.355469-15.394532-8.964844v20.347656l17.992188 20.679688c2.75 3.164062 2.414062 7.957031-.738282 10.707031-3.152343 2.738281-7.945312 2.414062-10.695312-.75l-6.558594-7.53125v21.128906c0 4.183594-3.386718 7.578125-7.582031 7.578125-4.183594 0-7.582031-3.394531-7.582031-7.578125v-21.128906c-5.386719 5.390625-6.851563 10.140625-12.269532 10.140625-6.449218 0-9.988281-7.652344-5.722656-12.566406l17.992188-20.679688v-20.378906l-9.742188 7.117187c-6.761718 4.941407-16.175781-.527343-15.265625-8.824219l1.304688-11.9375-17.617188 10.167969-8.917969 25.917969c-1.078124 3.140625-4.019531 5.125-7.164062 5.125-5.195312 0-8.867188-5.136719-7.167969-10.058594l3.246094-9.429687-18.296875 10.550781c-3.609375 2.09375-8.246094.871094-10.359375-2.769531-2.09375-3.628907-.851563-8.257813 2.777344-10.359375l18.296875-10.554688-9.804688-1.910156c-4.105468-.796875-6.792968-4.78125-5.984375-8.894531.796875-4.105469 4.769531-6.792969 8.886719-5.996094l26.90625 5.246094 17.660156-10.199219-11.050781-4.878906c-7.648437-3.378906-7.628906-14.265625.011719-17.628906l10.996094-4.84375-17.617188-10.167969-26.90625 5.234375c-4.117188.800781-8.089844-1.878906-8.886719-5.992188-.808593-4.105468 1.878907-8.085937 5.984375-8.886718l9.804688-1.910157-18.296875-10.5625c-3.628907-2.09375-4.871094-6.730469-2.777344-10.351562 2.089844-3.628907 6.730469-4.871094 10.359375-2.777344l18.296875 10.5625-3.246094-9.441406c-1.363281-3.964844.738281-8.269531 4.699219-9.632813 3.964844-1.367187 8.269531.746094 9.632812 4.699219l8.917969 25.925781 17.660157 10.199219-1.296876-12.007813c-.070312-.6875-.078124-1.351562-.019531-2 .667969-7.148437 9.117188-11.339843 15.292969-6.804687l9.683594 7.109375v-20.347656l-17.992188-20.691406c-2.738281-3.15625-2.40625-7.945313.75-10.695313 3.164063-2.75 7.945313-2.417969 10.695313.746094l6.546875 7.53125v-21.125c0-4.1875 3.398437-7.582031 7.582031-7.582031 4.195313 0 7.582031 3.394531 7.582031 7.582031v21.125l6.558594-7.53125c2.75-3.164063 7.53125-3.496094 10.695312-.746094 3.152344 2.75 3.488282 7.539063.738282 10.695313l-17.992188 20.691406v20.375l9.753906-7.125c3.082032-2.242188 7.207032-2.464844 10.511719-.554688 3.304688 1.910156 5.167969 5.589844 4.75 9.390625l-1.300781 11.9375 17.617188-10.171875 8.914062-25.925781c1.367188-3.953125 5.671875-6.066406 9.632812-4.699219 3.964844 1.363282 6.066407 5.667969 4.703126 9.632813l-3.246094 9.441406 18.296875-10.5625c3.628906-2.09375 8.257812-.851563 10.359375 2.777344 2.09375 3.621093.851562 8.257812-2.777344 10.351562l-18.296875 10.5625 9.804687 1.910157c4.101563.800781 6.792969 4.78125 5.984376 8.886718-.800782 4.113282-4.78125 6.792969-8.886719 5.992188l-26.90625-5.234375-17.660157 10.199219 11.046876 4.871093c7.652343 3.386719 7.632812 14.273438-.007813 17.640625l-11 4.839844 17.621094 10.167969 26.90625-5.246094c4.113281-.796875 8.085937 1.890625 8.886719 5.996094.324218 1.617187.089843 3.222656-.558594 4.609375-.980469 2.144531-2.941406 3.800781-5.425782 4.285156l-9.804687 1.910156 18.296875 10.554688c6.691406 3.871094 3.941406 14.148437-3.800781 14.148437zm0 0" fill="#97bffd" />
	<path d="m474.34375 298.363281-18.296875 10.5625 9.804687 1.910157c4.101563.800781 6.792969 4.78125 5.984376 8.886718-.800782 4.113282-4.78125 6.792969-8.886719 5.992188l-26.90625-5.234375-17.660157 10.199219 11.046876 4.871093c7.652343 3.386719 7.632812 14.273438-.007813 17.640625l-11 4.839844 17.621094 10.167969 26.90625-5.246094c4.113281-.796875 8.085937 1.890625 8.886719 5.996094.324218 1.617187.089843 3.222656-.558594 4.609375-4.3125.476562-8.703125.707031-13.140625.707031-49.183594 0-91.597657-28.941406-111.148438-70.726563.667969-7.148437 9.117188-11.339843 15.292969-6.804687l9.683594 7.109375v-20.347656l-17.992188-20.691406c-2.738281-3.15625-2.40625-7.945313.75-10.695313 3.164063-2.75 7.945313-2.417969 10.695313.746094l6.546875 7.53125v-21.125c0-4.1875 3.398437-7.582031 7.582031-7.582031 4.195313 0 7.582031 3.394531 7.582031 7.582031v21.125l6.558594-7.53125c2.75-3.164063 7.53125-3.496094 10.695312-.746094 3.152344 2.75 3.488282 7.539063.738282 10.695313l-17.992188 20.691406v20.375l9.753906-7.125c3.082032-2.242188 7.207032-2.464844 10.511719-.554688 3.304688 1.910156 5.167969 5.589844 4.75 9.390625l-1.300781 11.9375 17.617188-10.171875 8.914062-25.925781c1.367188-3.953125 5.671875-6.066406 9.632812-4.699219 3.964844 1.363282 6.066407 5.667969 4.703126 9.632813l-3.246094 9.441406 18.296875-10.5625c3.628906-2.09375 8.257812-.851563 10.359375 2.777344 2.09375 3.621093.851562 8.257812-2.777344 10.351562zm0 0" fill="#b9d3fd" />
	<path d="m397.929688 77.035156c-10.796876-44.648437-51.078126-77.035156-98.039063-77.035156-43.78125 0-82.160156 28.039062-95.734375 69.027344-20.78125-3.191406-40.800781 3.652344-55.375 17.914062-2.992188 2.929688-3.042969 7.730469-.109375 10.722656 2.921875 2.984376 7.722656 3.042969 10.714844.113282 12.328125-12.066406 29.800781-17.429688 48.132812-12.574219 4.136719 1.085937 8.273438-1.421875 9.292969-5.46875 9.640625-38.019531 43.796875-64.570313 83.078125-64.570313 43.253906 0 79.824219 32.324219 85.070313 75.183594.695312 5.761719 7.398437 8.628906 12.046874 5.15625 38.960938-28.988281 97.007813-2.535156 97.007813 48.78125 0 39.308594-35.539063 60.757813-53.804687 60.757813h-65.652344c-4.183594 0-7.582032 3.398437-7.582032 7.582031 0 4.1875 3.398438 7.582031 7.582032 7.582031h65.652344c24.066406 0 68.96875-26.078125 68.96875-75.921875 0-58.238281-62.160157-93.292968-111.25-67.25zm0 0" />
	<path d="m344.234375 220.207031c4.183594 0 7.582031-3.394531 7.582031-7.582031 0-4.183594-3.398437-7.582031-7.582031-7.582031h-77.042969c-9.773437-23.957031-38.121094-35.765625-62.15625-25.53125-8.472656-27.277344-34.742187-44.671875-61.164062-43.261719-.269532-4.535156.3125-10.398438 1.988281-16.0625 1.183594-4.015625-1.109375-8.230469-5.125-9.421875-4.011719-1.191406-8.234375 1.113281-9.417969 5.125-2.265625 7.652344-3.039062 15.53125-2.496094 22.785156-18.347656 5.34375-33.410156 19.03125-40.3125 37.246094-26.285156-2.386719-48.003906 21.320313-44.394531 46.863281h-20.398437c-13.070313 0-23.714844 10.632813-23.714844 23.714844 0 13.066406 10.644531 23.703125 23.714844 23.703125h39.21875c4.183594 0 7.582031-3.386719 7.582031-7.582031 0-4.183594-3.398437-7.582032-7.582031-7.582032h-39.21875c-4.710938 0-8.550782-3.832031-8.550782-8.539062 0-4.722656 3.839844-8.554688 8.550782-8.554688h30.34375c2.546875 0 4.933594-1.28125 6.335937-3.414062 3.589844-5.484375-1.515625-7.707031-1.515625-17.367188 0-15.976562 15.222656-29.996093 32.921875-25.320312 4.050781 1.070312 8.226563-1.335938 9.292969-5.457031 3.992188-15.761719 15.746094-27.878907 30.574219-32.730469 27.445312-8.96875 57.039062 9.1875 60.628906 38.480469.699219 5.773437 7.410156 8.625 12.050781 5.15625 20.546875-15.28125 51.148438-1.382813 51.148438 25.714843 0 21.136719-19.632813 32.03125-28.011719 32.03125h-134.226563c-4.183593 0-7.582031 3.398438-7.582031 7.582032 0 4.195312 3.398438 7.582031 7.582031 7.582031h134.226563c18.800781 0 44.714844-20.097656 43.089844-49.996094zm0 0" />
	<path d="m262.28125 343.007812c-2.089844-3.625-6.730469-4.867187-10.355469-2.773437l-18.292969 10.5625 3.246094-9.441406c1.363282-3.960938-.742187-8.273438-4.703125-9.636719-3.957031-1.359375-8.269531.746094-9.632812 4.703125l-8.917969 25.925781-17.617188 10.171875 1.304688-11.941406c.910156-8.300781-8.503906-13.765625-15.261719-8.832031l-9.75 7.125v-20.382813l17.992188-20.683593c2.746093-3.160157 2.414062-7.949219-.746094-10.695313-3.15625-2.75-7.945313-2.417969-10.695313.742187l-6.550781 7.53125v-21.125c0-4.183593-3.394531-7.578124-7.582031-7.578124s-7.582031 3.394531-7.582031 7.578124v21.125l-6.550781-7.53125c-2.75-3.160156-7.539063-3.492187-10.695313-.742187-3.160156 2.746094-3.492187 7.535156-.746094 10.695313l17.996094 20.683593v20.347657l-9.6875-7.105469c-6.734375-4.9375-16.175781.484375-15.277344 8.804687l1.296875 12.007813-17.660156-10.195313-8.917969-25.925781c-1.359375-3.957031-5.671875-6.066406-9.632812-4.703125-3.960938 1.363281-6.066407 5.675781-4.703125 9.636719l3.25 9.441406-18.296875-10.5625c-3.625-2.097656-8.261719-.851563-10.355469 2.773437s-.851562 8.261719 2.773438 10.355469l18.296874 10.5625-9.800781 1.90625c-4.109375.800781-6.792969 4.78125-5.992187 8.890625.800781 4.109375 4.78125 6.792969 8.890625 5.996094l26.910156-5.242188 17.613281 10.171876-10.992187 4.839843c-7.644531 3.363281-7.664063 14.253907-.011719 17.632813l11.046875 4.878906-17.65625 10.195312-26.910156-5.238281c-4.117188-.800781-8.089844 1.882813-8.890625 5.992188-.800782 4.109375 1.882812 8.089843 5.992187 8.890625l9.800781 1.910156-18.296874 10.5625c-6.699219 3.867188-3.933594 14.148438 3.796874 14.148438 3.523438 0 3.921876-1.46875 22.082032-11.582032l-3.25 9.441406c-1.691406 4.921876 1.976562 10.046876 7.167968 10.046876 3.148438 0 6.089844-1.972657 7.171876-5.117188l8.917968-25.921875 17.617188-10.171875-1.308594 11.941406c-.414062 3.792969 1.453125 7.476563 4.753906 9.390625 3.304688 1.910157 7.429688 1.6875 10.507813-.5625l9.753906-7.125v20.382813l-17.992187 20.6875c-2.746094 3.15625-2.414063 7.945312.746093 10.695312 3.175781 2.765625 7.964844 2.390625 10.695313-.746094l6.550781-7.53125v21.125c0 4.1875 3.394531 7.582032 7.582031 7.582032s7.578125-3.394532 7.578125-7.582032v-21.125c5.390625 5.378907 6.851563 10.136719 12.277344 10.136719 6.449219 0 9.984375-7.648437 5.714844-12.554687l-17.992188-20.683594v-20.347656c8.371094 5.613281 10.320313 8.96875 15.386719 8.96875 5.753906 0 10.1875-5 9.578125-10.671875l-1.296875-12.003907 17.660156 10.195313 8.917969 25.921875c1.078125 3.144531 4.019531 5.117188 7.167969 5.117188 5.183594 0 8.867187-5.117188 7.167968-10.046876l-3.246093-9.441406c18.257812 10.167969 18.5625 11.582032 22.078125 11.582032 7.738281 0 10.496094-10.285157 3.796875-14.148438l-18.292969-10.5625 9.800781-1.910156c4.105469-.800782 6.789063-4.777344 5.992188-8.890625-.800781-4.109375-4.773438-6.789063-8.890625-5.992188l-26.910156 5.238281-17.617188-10.167968 10.996094-4.839844c7.644531-3.367188 7.664062-14.253906.011718-17.632812l-11.050781-4.878907 17.660157-10.195312 26.910156 5.238281c.488281.09375.976562.140625 1.457031.140625 3.554687 0 6.726563-2.511719 7.433594-6.132813.800781-4.109374-1.882813-8.089843-5.992188-8.890624l-9.800781-1.910157 18.292969-10.5625c3.621093-2.09375 4.863281-6.730469 2.769531-10.355469zm-120.125 60.601563-9.722656-4.292969 9.695312-4.265625 7.425782 4.289063zm14.980469 17.414063-8.578125 6.269531 1.152344-10.535157 7.425781-4.289062zm0-34.816407-7.398438-4.273437-1.144531-10.558594 8.542969 6.265625zm15.164062-8.558593 8.578125-6.265626-1.152344 10.535157-7.425781 4.289062zm0 43.386718v-8.566406l7.398438 4.273438 1.140625 10.558593zm15.007813-17.410156-7.429688-4.289062 7.402344-4.273438 9.722656 4.296875zm0 0" />
	<path d="m477.117188 288.003906c-2.09375-3.628906-6.730469-4.871094-10.355469-2.773437l-18.292969 10.5625 3.246094-9.441407c1.363281-3.960937-.742188-8.273437-4.703125-9.636718-3.957031-1.359375-8.273438.746094-9.632813 4.703125l-8.917968 25.925781-17.617188 10.167969 1.304688-11.941407c.910156-8.300781-8.507813-13.761718-15.261719-8.828124l-9.753907 7.125v-20.382813l17.996094-20.683594c2.746094-3.160156 2.414063-7.949219-.746094-10.695312-3.15625-2.75-7.945312-2.414063-10.695312.742187l-6.550781 7.53125v-21.125c0-4.183594-3.394531-7.578125-7.582031-7.578125s-7.582032 3.394531-7.582032 7.578125v21.125l-6.550781-7.53125c-2.75-3.15625-7.539063-3.492187-10.695313-.742187-3.160156 2.746093-3.492187 7.535156-.746093 10.695312l17.992187 20.683594v20.347656l-9.683594-7.105469c-6.734374-4.9375-16.175781.484376-15.277343 8.804688l1.296875 12.007812-17.660156-10.195312-8.917969-25.925781c-1.363281-3.957031-5.671875-6.066407-9.632813-4.703125-3.960937 1.363281-6.066406 5.675781-4.703125 9.636718l3.25 9.441407-18.296875-10.5625c-3.628906-2.097657-8.265625-.851563-10.355468 2.773437-2.09375 3.625-.851563 8.261719 2.773437 10.355469l18.296875 10.5625-9.800781 1.90625c-4.109375.800781-6.792969 4.78125-5.992188 8.890625s4.78125 6.792969 8.890625 5.996094l26.910156-5.242188 17.613282 10.171875-10.992188 4.839844c-7.648437 3.367187-7.664062 14.253906-.011718 17.632813l11.046874 4.878906-17.660156 10.195312-26.90625-5.238281c-4.117187-.800781-8.089844 1.886719-8.890625 5.992187-.800781 4.109376 1.882813 8.089844 5.992188 8.890626l9.800781 1.910156-18.296875 10.5625c-6.699219 3.867187-3.933594 14.148437 3.796875 14.148437 3.523438 0 3.921875-1.46875 22.082031-11.582031l-3.25 9.441406c-1.695312 4.921875 1.976563 10.046875 7.167969 10.046875 3.148438 0 6.089844-1.972656 7.171875-5.117187l8.914063-25.921875 17.617187-10.171875-1.304687 11.941406c-.910157 8.300781 8.503906 13.761719 15.261718 8.828125l9.753906-7.125v20.386719l-17.992187 20.683594c-2.75 3.15625-2.417969 7.945312.742187 10.695312 3.179688 2.765625 7.964844 2.394531 10.695313-.746094l6.550781-7.53125v21.125c0 4.1875 3.394532 7.582032 7.582032 7.582032s7.582031-3.394532 7.582031-7.582032v-21.125c5.386719 5.378906 6.847656 10.136719 12.273437 10.136719 6.453125 0 9.984375-7.648437 5.71875-12.554687l-17.992187-20.683594v-20.347656c8.371093 5.613281 10.320312 8.96875 15.386719 8.96875 5.753906 0 10.1875-5 9.578124-10.671876l-1.296874-12.003906 17.660156 10.195313 8.914062 25.921875c1.082032 3.144531 4.023438 5.117187 7.171875 5.117187 5.179688 0 8.863281-5.117187 7.167969-10.046875l-3.25-9.441406c18.257812 10.167969 18.566406 11.582031 22.082031 11.582031 7.738281 0 10.492188-10.28125 3.796875-14.148437l-18.296875-10.5625 9.800781-1.910156c4.109376-.800782 6.792969-4.777344 5.992188-8.890626-.800781-4.105468-4.769531-6.789062-8.890625-5.992187l-26.90625 5.238281-17.617187-10.167968 10.996093-4.839844c3.492188-1.539063 5.75-4.996094 5.753907-8.8125 0-3.816406-2.253907-7.277344-5.746094-8.820313l-11.046875-4.878906 17.660156-10.195313c28.007813 5.402344 27.03125 5.378907 28.363281 5.378907 3.558594 0 6.730469-2.511719 7.433594-6.132813.800781-4.109375-1.878906-8.089844-5.992188-8.890625l-9.796874-1.910156 18.292968-10.558594c3.621094-2.097656 4.863282-6.734375 2.769532-10.359375zm-120.128907 60.601563-9.722656-4.292969 9.695313-4.269531 7.429687 4.289062zm14.984375 17.414062-8.582031 6.269531 1.152344-10.539062 7.429687-4.285156zm0-34.816406-7.402344-4.273437-1.140624-10.558594 8.542968 6.265625zm15.160156-8.558594 8.582032-6.269531-1.152344 10.539062-7.429688 4.285157zm0 43.382813v-8.5625l7.402344 4.269531 1.140625 10.558594zm15.011719-17.40625-7.429687-4.289063 7.402344-4.273437 9.722656 4.296875zm0 0" />
</svg>
