<svg viewBox="0 0 512.00143 512" xmlns="http://www.w3.org/2000/svg">
	<path d="m477.148438 280.984375-57.289063 58.949219-43.914063 45.191406c-4.886718 5.015625-12.964843-.875-9.6875-7.054688l27.472657-51.78125c4.964843-9.378906-1.828125-20.664062-12.429688-20.664062h-73.160156c-8.480469 0-13.546875-9.433594-8.871094-16.507812l69.238281-104.511719c4.710938-7.105469 12.671876-11.386719 21.195313-11.386719 5.40625 0 10.226563 1.605469 14.1875 4.28125 6.996094 4.710938 11.285156 12.773438 11.285156 21.222656 0 4.742188-1.355469 9.609375-4.339843 14.070313l-33.554688 50.144531h92.242188c9.394531 0 14.179687 11.304688 7.625 18.046875zm0 0" fill="#f29500" />
	<path d="m247.171875 318.359375c0 7.445313-1.816406 14.007813-4.742187 19.625-7.898438 15.136719-23.828126 23.367187-33.875 23.367187h-183.75c-8.992188 0-16.742188-6.886718-17.246094-15.878906-.441406-7.738281 4.363281-14.429687 11.1875-16.851562 1.203125-.421875 1.796875-1.769532 1.316406-2.957032-9.246094-22.609374 6.28125-46.890624 28.769531-50.023437 4-.554687 8.210938-.441406 12.550781.460937 1.117188.242188 2.253907-.421874 2.574219-1.527343 7.113281-24.390625 29.644531-42.207031 56.335938-42.207031 28.761719 0 52.679687 20.691406 57.703125 48.007812.289062 1.554688 2.027344 2.371094 3.367187 1.527344 27.742188-17.496094 65.808594 1.96875 65.808594 36.457031zm0 0" fill="#2476ed" />
	<path d="m247.171875 318.359375c0 7.445313-1.816406 14.007813-4.742187 19.625h-185.578126c-9.9375 0-18.492187-7.597656-19.054687-17.523437-.480469-8.554688 4.824219-15.941407 12.351563-18.613282 1.335937-.472656 1.988281-1.949218 1.457031-3.253906-2.632813-6.441406-3.445313-14.441406-2.773438-22.953125 4-.554687 8.210938-.441406 12.550781.460937 1.117188.242188 2.25-.421874 2.574219-1.527343 7.113281-24.390625 29.644531-42.207031 56.335938-42.207031 28.757812 0 52.675781 20.691406 57.703125 48.007812.289062 1.554688 2.027344 2.371094 3.363281 1.527344 27.746094-17.496094 65.8125 1.96875 65.8125 36.457031zm0 0" fill="#5596fb" />
	<path d="m504.449219 133.800781c-.390625 10.679688-9.496094 18.980469-20.183594 18.980469h-248.535156c-15.53125 0-43.492188-17.433594-43.492188-48.417969 0-38.695312 42.554688-60.605469 73.773438-41.261719 1.644531 1.019532 3.824219.082032 4.183593-1.820312 5.773438-30.601562 32.644532-53.75 64.929688-53.75 8.488281 0 16.605469 1.601562 24.058594 4.515625 9.667968 3.78125 18.234375 9.785156 25.0625 17.367187 6.488281 7.203126 11.417968 15.851563 14.242187 25.394532.410157 1.386718 1.816407 2.203125 3.230469 1.917968 31.195312-6.328124 56.792969 23.902344 47.332031 52.96875-.585937 1.804688.746094 3.65625 2.644531 3.65625h33.054688c11.136719-.003906 20.113281 9.234376 19.699219 20.449219zm0 0" fill="#5596fb" />
	<path d="m369.75 42.34375c0 7.953125-1.839844 15.015625-4.851562 21.113281-8.6875 17.671875-27.09375 27.304688-38.640626 27.304688h-65.207031c-6.949219 0-11.671875 6.902343-9.324219 13.445312.03125.085938.058594.171875.089844.257813 1.882813 5.339844 7.703125 8.050781 13.011719 6.09375 25.144531-9.273438 54.808594 8.667968 54.808594 38.308594 0 1.332031-.066407 2.636718-.191407 3.914062h-83.71875c-15.527343 0-43.492187-17.433594-43.492187-48.417969 0-40.175781 45.875-62.257812 77.304687-38.859375 3.992188-32.667968 31.832032-57.972656 65.585938-57.972656 8.488281 0 16.605469 1.601562 24.054688 4.515625 6.519531 8.019531 10.570312 18.359375 10.570312 30.296875zm0 0" fill="#2476ed" />
	<path d="m217.429688 398.21875-57.261719 58.921875-43.945313 45.21875c-4.875 5.015625-12.953125-.863281-9.675781-7.042969l27.464844-51.785156c4.972656-9.375-1.820313-20.671875-12.433594-20.671875h-73.15625c-8.472656 0-13.546875-9.433594-8.863281-16.5l69.238281-104.511719c4.703125-7.113281 12.660156-11.386718 21.191406-11.386718 5.410157 0 10.230469 1.609374 14.191407 4.28125 6.996093 4.714843 11.285156 12.773437 11.285156 21.214843 0 4.742188-1.355469 9.609375-4.339844 14.070313l-33.554688 50.15625h92.242188c9.394531 0 14.167969 11.304687 7.617188 18.035156zm0 0" fill="#f29500" />
	<path d="m477.148438 280.984375-57.289063 58.949219 18.089844-34.085938c4.960937-9.367187-1.832031-20.660156-12.433594-20.660156h-73.15625c-8.484375 0-13.546875-9.4375-8.875-16.511719l60.40625-91.175781c6.996094 4.710938 11.285156 12.773438 11.285156 21.222656 0 4.742188-1.355469 9.609375-4.339843 14.070313l-33.554688 50.144531h92.242188c9.394531 0 14.179687 11.304688 7.625 18.046875zm0 0" fill="#ffb52d" />
	<path d="m217.429688 398.21875-57.261719 58.921875 18.058593-34.046875c4.972657-9.378906-1.820312-20.671875-12.429687-20.671875h-73.160156c-8.472657 0-13.546875-9.4375-8.863281-16.5l60.40625-91.179687c6.996093 4.714843 11.285156 12.773437 11.285156 21.214843 0 4.742188-1.355469 9.609375-4.339844 14.070313l-33.554688 50.15625h92.242188c9.394531 0 14.167969 11.304687 7.617188 18.035156zm0 0" fill="#ffb52d" />
	<path d="m484.75 105.816406h-26.957031c5.792969-31.464844-21.234375-60.886718-53.382813-57.136718-10.394531-28.988282-37.945312-48.679688-69.289062-48.679688-33.351563 0-62.078125 22.382812-70.863282 53.605469-6.480468-3.035157-13.464843-4.78125-20.636718-5.128907-4.152344-.203124-7.691406 3.007813-7.890625 7.167969-.203125 4.15625 3.007812 7.691407 7.164062 7.890625 7.949219.382813 15.605469 3.15625 22.140625 8.019532 4.628906 3.449218 11.28125.613281 11.980469-5.128907 3.582031-29.273437 28.5625-51.351562 58.105469-51.351562 26.828125 0 50.164062 18.136719 56.75 44.105469.492187 1.953124 1.746094 3.625 3.484375 4.644531 4.339843 2.558593 6.238281-.402344 14.707031-.402344 22.980469 0 40.425781 24.351563 30.683594 46.949219-2.140625 4.96875 1.503906 10.519531 6.921875 10.519531h37.082031c6.714844 0 12.175781 5.464844 12.175781 12.179687 0 6.300782-4.714843 11.507813-10.972656 12.117188-4.144531.402344-7.175781 4.089844-6.773437 8.230469 1.445312 14.863281 32.824218 4.152343 32.820312-20.347657 0-15.027343-12.222656-27.253906-27.25-27.253906zm0 0" />
	<path d="m235.722656 160.320312h220.816406c4.160157 0 7.535157-3.375 7.535157-7.539062 0-4.160156-3.375-7.535156-7.535157-7.535156h-220.816406c-5.457031 0-14.511718-3.277344-22.457031-10.59375-20.457031-18.859375-16.960937-50.550782 5.335937-64.644532 3.519532-2.222656 4.570313-6.878906 2.347657-10.394531-2.226563-3.519531-6.878907-4.570312-10.398438-2.347656-16.429687 10.386719-25.851562 27.550781-25.851562 47.101563 0 34.15625 30.21875 55.953124 51.023437 55.953124zm0 0" />
	<path d="m248.789062 183.207031-13.507812 26.675781c-2.554688 5.042969 1.164062 10.941407 6.71875 10.941407 2.75 0 5.398438-1.511719 6.730469-4.132813l13.507812-26.675781c1.882813-3.710937.394531-8.246094-3.320312-10.128906-3.710938-1.882813-8.246094-.394531-10.128907 3.320312zm0 0" />
	<path d="m311.578125 183.191406-13.585937 26.675782c-1.886719 3.707031-.414063 8.246093 3.296874 10.136718 3.730469 1.898438 8.257813.390625 10.136719-3.296875l13.585938-26.675781c1.886719-3.707031.414062-8.246094-3.296875-10.136719-3.707032-1.886719-8.246094-.414062-10.136719 3.296875zm0 0" />
	<path d="m450.898438 183.160156-13.738282 26.675782c-1.90625 3.699218-.453125 8.246093 3.246094 10.152343 3.734375 1.921875 8.261719.417969 10.152344-3.25l13.738281-26.675781c1.90625-3.699219.453125-8.246094-3.246094-10.152344-3.703125-1.90625-8.25-.449218-10.152343 3.25zm0 0" />
	<path d="m263.878906 300.992188c2.742188 0 5.390625-1.503907 6.71875-4.117188l13.585938-26.675781c1.890625-3.710938.414062-8.25-3.292969-10.136719-3.710937-1.890625-8.25-.414062-10.136719 3.292969l-13.585937 26.675781c-2.578125 5.058594 1.160156 10.960938 6.710937 10.960938zm0 0" />
	<path d="m282.777344 345.085938c-3.703125-1.894532-8.246094-.433594-10.144532 3.273437l-13.660156 26.675781c-2.578125 5.035156 1.113282 10.972656 6.699219 10.972656 2.742187 0 5.382813-1.496093 6.714844-4.101562l13.664062-26.675781c1.898438-3.703125.433594-8.246094-3.273437-10.144531zm0 0" />
	<path d="m345.113281 345.09375c-3.703125-1.90625-8.246093-.449219-10.152343 3.25l-13.738282 26.675781c-2.601562 5.054688 1.128906 10.988281 6.695313 10.988281 2.730469 0 5.367187-1.488281 6.707031-4.085937l13.738281-26.675781c1.90625-3.699219.449219-8.246094-3.25-10.152344zm0 0" />
	<path d="m467.824219 345.085938c-3.703125-1.894532-8.246094-.433594-10.140625 3.273437l-13.664063 26.675781c-2.578125 5.035156 1.117188 10.972656 6.703125 10.972656 2.738282 0 5.378906-1.496093 6.714844-4.101562l13.660156-26.675781c1.898438-3.703125.433594-8.246094-3.273437-10.144531zm0 0" />
	<path d="m246.121094 426.070312c-3.703125-1.898437-8.246094-.433593-10.144532 3.269532l-13.660156 26.675781c-1.898437 3.707031-.433594 8.246094 3.273438 10.144531 3.734375 1.914063 8.261718.402344 10.140625-3.273437l13.664062-26.675781c1.898438-3.703126.433594-8.246094-3.273437-10.140626zm0 0" />
	<path d="m308.039062 425.878906c-3.808593-1.675781-8.257812.054688-9.929687 3.863282l-11.730469 26.675781c-2.199218 5.003906 1.5 10.574219 6.898438 10.574219 2.898437 0 5.660156-1.683594 6.902344-4.503907l11.726562-26.675781c1.675781-3.8125-.054688-8.257812-3.867188-9.933594zm0 0" />
	<path d="m380.601562 425.878906c-3.8125-1.675781-8.257812.054688-9.933593 3.863282l-11.726563 26.675781c-2.199218 5.003906 1.496094 10.574219 6.894532 10.574219 2.898437 0 5.660156-1.683594 6.902343-4.503907l11.726563-26.675781c1.675781-3.8125-.054688-8.257812-3.863282-9.933594zm0 0" />
	<path d="m441.941406 425.878906c-3.808594-1.675781-8.253906.054688-9.929687 3.863282l-11.730469 26.675781c-1.671875 3.8125.058594 8.257812 3.867188 9.933593 3.808593 1.675782 8.257812-.050781 9.933593-3.867187l11.726563-26.675781c1.675781-3.808594-.054688-8.253906-3.867188-9.929688zm0 0" />
	<path d="m469.523438 255.402344h-78.125l25.707031-38.421875c6.878906-10.285157 7.507812-22.945313 1.675781-33.863281-11.972656-22.417969-43.011719-23.117188-56.558594-2.671876l-69.234375 104.511719c-7.992187 12.066407.679688 28.203125 15.148438 28.203125h73.160156c3.335937 0 5.027344 2.214844 5.597656 3.164063.574219.953125 1.738281 3.484375.175781 6.429687l-27.46875 51.785156c-7.371093 13.890626 10.871094 27.019532 21.742188 15.832032l101.207031-104.136719c11.210938-11.53125 3.027344-30.832031-13.027343-30.832031zm2.21875 20.328125-93.9375 96.660156 22.582031-42.570313c3.585937-6.757812 3.371093-14.707031-.570313-21.261718-3.945312-6.554688-10.867187-10.472656-18.515625-10.472656h-73.160156c-2.46875 0-3.960937-2.726563-2.582031-4.804688l69.234375-104.511719c3.324219-5.015625 8.898437-8.011719 14.914062-8.011719 6.71875 0 12.617188 3.539063 15.78125 9.464844 3.164063 5.925782 2.824219 12.792969-.910156 18.378906l-33.554687 50.148438c-1.546876 2.3125-1.695313 5.289062-.382813 7.742188 1.308594 2.453124 3.867187 3.988281 6.648437 3.988281h92.238282c2.730468-.003907 4.144531 3.265625 2.214844 5.25zm0 0" />
	<path d="m224.703125 272.261719c-3.796875-1.6875-8.25.023437-9.949219 3.832031-1.6875 3.796875.03125 8.257812 3.828125 9.945312 12.984375 5.761719 21.054688 18.152344 21.054688 32.320313 0 23.394531-21.789063 35.453125-31.082031 35.453125h-64.277344l13.105468-19.59375c6.882813-10.28125 7.515626-22.945312 1.6875-33.859375-11.960937-22.378906-42.984374-23.15625-56.566406-2.671875l-37.179687 56.125h-40.941407c-5.136718 0-9.316406-4.179688-9.316406-9.316406 0-4.429688 3.144532-8.269532 7.488282-9.125 4.824218-.972656 7.472656-6.214844 5.3125-10.699219-10.707032-21.851563 9.167968-47.269531 33.605468-40.800781 4.121094 1.082031 8.226563-1.421875 9.234375-5.4375 5.75-22.679688 26.140625-38.527344 49.585938-38.527344 25.804687 0 47.621093 19.28125 50.757812 44.859375.320313 2.660156 2.039063 4.953125 4.511719 6.007813 6.394531 2.757812 7.582031-3.304688 18.730469-6.511719 3.992187-1.164063 6.292969-5.347657 5.136719-9.34375-1.15625-3.992188-5.335938-6.292969-9.335938-5.136719-2.171875.621094-4.28125 1.398438-6.339844 2.320312-8.210937-27.59375-33.808594-47.269531-63.460937-47.269531-27.976563 0-52.589844 17.425781-62.105469 43.160157-30.175781-3.058594-55.171875 26.167968-46.730469 55.832031-20.777343 13.035156-11.3984372 45.0625 12.925781 45.0625h30.960938l-22.066406 33.3125c-7.988282 12.066406.664062 28.199219 15.140625 28.199219h73.160156c4.933594 0 8.085937 5.230468 5.777344 9.597656l-27.472657 51.78125c-7.371093 13.917968 10.902344 27.003906 21.746094 15.839844l101.203125-104.140626c11.210938-11.515624 3.035157-30.832031-13.023437-30.832031h-78.132813l2.515625-3.757812h74.363282c18.8125 0 46.15625-19.6875 46.15625-50.527344 0-20.21875-11.496094-37.875-30.007813-46.097656zm-113.394531 103.730469c-3.351563 5.003906.257812 11.726562 6.257812 11.726562h92.242188c2.765625 0 4.117187 3.285156 2.222656 5.257812l-93.941406 96.652344 22.582031-42.570312c7.628906-14.359375-2.773437-31.734375-19.09375-31.734375h-73.160156c-2.488281 0-3.9375-2.738281-2.582031-4.804688 75.054687-113.304687 29.214843-44.09375 69.238281-104.511719 7.351562-11.109374 24.222656-10.695312 30.691406 1.457032 3.167969 5.921875 2.824219 12.792968-.902344 18.371094-17.667969 26.394531-28.066406 41.945312-33.554687 50.15625zm0 0" />
</svg>
