<?xml version="1.0" encoding="utf-8"?>
<svg version="1.1" id="Layer_1" xmlns="http://www.w3.org/2000/svg" xmlns:xlink="http://www.w3.org/1999/xlink" x="0px" y="0px" viewBox="0 0 511 511" style="enable-background:new 0 0 511 511;" xml:space="preserve">
	<g>
		<path fill="#95BFB9" d="M361.7,338.8c-0.6,2-1.7,3.8-3.6,5.3c-55.3,45.8-136.9,58.7-207.5,26.9C58.8,329.8,18.7,227.4,60.5,141.1
		c21.9-45.3,61.5-77.4,107.6-93c1.8-0.5,3.6-0.8,5.3-0.5c7.8,0.7,13.4,9,9,16.3C111.4,182.1,205.9,327.2,350.2,325
		C358.6,324.9,363.6,332.3,361.7,338.8z" />
		<path fill="#DCF9F6" d="M361.7,338.8c-48,20.4-104.9,21.5-155.9-1.4c-89.1-40.2-127.9-140.1-87.1-224.7c12.9-26.5,32-48.5,54.9-65.2
		c7.8,0.7,13.4,9,9,16.3C111.4,182.1,205.9,327.2,350.2,325C358.6,324.9,363.6,332.3,361.7,338.8z" />
		<path d="M333,323.3C192,295.5,123.1,164.4,187.7,65c5.1-7.9,8.7-22.5,0.1-23.3c-1.8-0.1-10.2-0.8-12.4-0.5
		C139,45.2,78,79.1,54,128.8c-45.9,95-1.8,207.7,98.9,252.9c77.8,35,152.2,16,216.3-30.6c8.7-6.4,18.1-18.5,12.1-27.5
		C376.9,317.4,357.7,328.2,333,323.3z M361.7,336.6c0,3.3-13.4,15-31.8,22.5c-87.7,39-157.2,27.5-215.3-20.6
		C70.6,296.2,34.8,223.2,64.8,148c24.2-49.7,44.1-63.2,83.4-87.3c3.4-2.5,23-10.3,28.1-7.7c2.1,1.2-0.6,2.5-9.5,14.2
		c-51.7,104.5-13.4,222.9,146.5,267C353.2,343.2,363.7,329.4,361.7,336.6z" />
	</g>
	<path d="M259.3,115.2h15.1l-6.3,6.3c-4.7,4.7-1.3,12.8,5.3,12.8c4.9,0,6.5-4,11.6-8.5v15.1c0,4.1,3.4,7.5,7.5,7.5s7.5-3.4,7.5-7.5
	v-15.1l6.3,6.3c2.9,2.9,7.7,2.9,10.6,0s2.9-7.7,0-10.6l-6.3-6.3h15.1c4.1,0,7.5-3.4,7.5-7.5s-3.4-7.5-7.5-7.5h-15.1l6.3-6.3
	c2.9-2.9,2.9-7.7,0-10.6s-7.7-2.9-10.6,0l-6.3,6.3V74.5c0-4.1-3.4-7.5-7.5-7.5c-4.2,0-7.5,3.4-7.5,7.5v15.1l-6.3-6.3
	c-2.9-2.9-7.7-2.9-10.6,0s-2.9,7.7,0,10.6l6.3,6.3h-15.1c-4.1,0-7.5,3.4-7.5,7.5C251.7,111.8,255.1,115.2,259.3,115.2z" />
	<path d="M407.2,199.9h15.1l-6.3,6.3c-4.7,4.7-1.3,12.8,5.3,12.8c4.9,0,6.5-4,11.6-8.5v15.1c0,4.1,3.4,7.5,7.5,7.5s7.5-3.4,7.5-7.5
	v-15.1l6.3,6.3c2.9,2.9,7.7,2.9,10.6,0s2.9-7.7,0-10.6l-6.3-6.3h15.1c4.1,0,7.5-3.4,7.5-7.5s-3.4-7.5-7.5-7.5h-15.1l6.3-6.3
	c2.9-2.9,2.9-7.7,0-10.6c-2.9-2.9-7.7-2.9-10.6,0l-6.3,6.3v-15.1c0-4.1-3.4-7.5-7.5-7.5c-4.2,0-7.5,3.4-7.5,7.5v15.1l-6.3-6.3
	c-2.9-2.9-7.7-2.9-10.6,0s-2.9,7.7,0,10.6l6.3,6.3h-15.1c-4.1,0-7.5,3.4-7.5,7.5C399.6,196.5,403,199.9,407.2,199.9z" />
	<path d="M363,48.2h15.1l-6.3,6.3c-4.7,4.7-1.3,12.8,5.3,12.8c4.9,0,6.5-4,11.6-8.5v15.1c0,4.1,3.4,7.5,7.5,7.5s7.5-3.4,7.5-7.5V58.8
	l6.3,6.3c2.9,2.9,7.7,2.9,10.6,0s2.9-7.7,0-10.6l-6.3-6.3h15.1c4.1,0,7.5-3.4,7.5-7.5s-3.4-7.5-7.5-7.5h-15.1l6.3-6.3
	c2.9-2.9,2.9-7.7,0-10.6s-7.7-2.9-10.6,0l-6.3,6.3V7.5c0-4.1-3.4-7.5-7.5-7.5c-4.2,0-7.5,3.4-7.5,7.5v15.1l-6.3-6.3
	c-2.9-2.9-7.7-2.9-10.6,0s-2.9,7.7,0,10.6l6.3,6.3H363c-4.1,0-7.5,3.4-7.5,7.5C355.4,44.8,358.8,48.2,363,48.2z" />
</svg>
